<svg width="28" height="28" viewBox="0 0 28 28" fill="none" xmlns="http://www.w3.org/2000/svg">
<path d="M23.4595 5.04492H21.6425V3.79012C21.6425 3.51695 21.4202 3.29492 21.1473 3.29492H19.7044C19.4312 3.29492 19.2092 3.51723 19.2092 3.79012V5.04492H8.79123V3.79012C8.79123 3.51695 8.56893 3.29492 8.29604 3.29492H6.85311C6.57994 3.29492 6.35791 3.51723 6.35791 3.79012V5.04492H4.54092C3.85404 5.04492 3.29541 5.60355 3.29541 6.29043V23.4596C3.29541 24.1464 3.85404 24.7051 4.54092 24.7051H23.4601C24.1469 24.7051 24.7056 24.1464 24.7056 23.4596V6.29043C24.705 5.60355 24.1464 5.04492 23.4595 5.04492ZM4.54037 5.45508H6.35736V6.70988C6.35736 6.98305 6.57967 7.20508 6.85256 7.20508H8.29549C8.56865 7.20508 8.79068 6.98277 8.79068 6.70988V5.45508H19.2087V6.70988C19.2087 6.98305 19.431 7.20508 19.7038 7.20508H21.1468C21.4199 7.20508 21.642 6.98277 21.642 6.70988V5.45508H23.459C23.9197 5.45508 24.2943 5.82996 24.2943 6.29043V9.41992H3.70447V6.29043C3.70502 5.82996 4.0799 5.45508 4.54037 5.45508ZM23.4595 24.2949H4.54037C4.07963 24.2949 3.70502 23.92 3.70502 23.4596V9.83008H24.2949V23.4596C24.2949 23.92 23.92 24.2949 23.4595 24.2949Z" fill="#797979"/>
<path d="M12.8734 11.6074H10.7516C10.4997 11.6074 10.2949 11.8122 10.2949 12.0641V13.7487C10.2949 14.0005 10.4997 14.2054 10.7516 14.2054H12.8737C13.1255 14.2054 13.3304 14.0005 13.3304 13.7487V12.0641C13.3301 11.8122 13.1253 11.6074 12.8734 11.6074ZM12.9199 13.7484C12.9199 13.7741 12.8991 13.7949 12.8734 13.7949H10.7516C10.7259 13.7949 10.7051 13.7741 10.7051 13.7484V12.0641C10.7051 12.0384 10.7259 12.0176 10.7516 12.0176H12.8737C12.8994 12.0176 12.9202 12.0384 12.9202 12.0641V13.7484H12.9199ZM17.2484 11.6074H15.1266C14.8747 11.6074 14.6699 11.8122 14.6699 12.0641V13.7487C14.6699 14.0005 14.8747 14.2054 15.1266 14.2054H17.2487C17.5005 14.2054 17.7054 14.0005 17.7054 13.7487V12.0641C17.7051 11.8122 17.5003 11.6074 17.2484 11.6074ZM17.2949 13.7484C17.2949 13.7741 17.2741 13.7949 17.2484 13.7949H15.1266C15.1009 13.7949 15.0801 13.7741 15.0801 13.7484V12.0641C15.0801 12.0384 15.1009 12.0176 15.1266 12.0176H17.2487C17.2744 12.0176 17.2952 12.0384 17.2952 12.0641V13.7484H17.2949ZM21.6234 11.6074H19.5016C19.2497 11.6074 19.0449 11.8122 19.0449 12.0641V13.7487C19.0449 14.0005 19.2497 14.2054 19.5016 14.2054H21.6237C21.8755 14.2054 22.0804 14.0005 22.0804 13.7487V12.0641C22.0801 11.8122 21.8753 11.6074 21.6234 11.6074ZM21.6699 13.7484C21.6699 13.7741 21.6491 13.7949 21.6234 13.7949H19.5016C19.4759 13.7949 19.4551 13.7741 19.4551 13.7484V12.0641C19.4551 12.0384 19.4759 12.0176 19.5016 12.0176H21.6237C21.6494 12.0176 21.6702 12.0384 21.6702 12.0641V13.7484H21.6699ZM8.49844 15.5449H6.37656C6.12473 15.5449 5.91992 15.7497 5.91992 16.0016V17.6862C5.91992 17.938 6.12473 18.1429 6.37656 18.1429H8.49871C8.75055 18.1429 8.95535 17.938 8.95535 17.6862V16.0016C8.95508 15.7497 8.75027 15.5449 8.49844 15.5449ZM8.54492 17.6859C8.54492 17.7116 8.52414 17.7324 8.49844 17.7324H6.37656C6.35086 17.7324 6.33008 17.7116 6.33008 17.6859V16.0016C6.33008 15.9759 6.35086 15.9551 6.37656 15.9551H8.49871C8.52441 15.9551 8.5452 15.9759 8.5452 16.0016V17.6859H8.54492ZM12.8734 15.5449H10.7516C10.4997 15.5449 10.2949 15.7497 10.2949 16.0016V17.6862C10.2949 17.938 10.4997 18.1429 10.7516 18.1429H12.8737C13.1255 18.1429 13.3304 17.938 13.3304 17.6862V16.0016C13.3301 15.7497 13.1253 15.5449 12.8734 15.5449ZM12.9199 17.6859C12.9199 17.7116 12.8991 17.7324 12.8734 17.7324H10.7516C10.7259 17.7324 10.7051 17.7116 10.7051 17.6859V16.0016C10.7051 15.9759 10.7259 15.9551 10.7516 15.9551H12.8737C12.8994 15.9551 12.9202 15.9759 12.9202 16.0016V17.6859H12.9199ZM17.2484 15.5449H15.1266C14.8747 15.5449 14.6699 15.7497 14.6699 16.0016V17.6862C14.6699 17.938 14.8747 18.1429 15.1266 18.1429H17.2487C17.5005 18.1429 17.7054 17.938 17.7054 17.6862V16.0016C17.7051 15.7497 17.5003 15.5449 17.2484 15.5449ZM21.6234 15.5449H19.5016C19.2497 15.5449 19.0449 15.7497 19.0449 16.0016V17.6862C19.0449 17.938 19.2497 18.1429 19.5016 18.1429H21.6237C21.8755 18.1429 22.0804 17.938 22.0804 17.6862V16.0016C22.0801 15.7497 21.8753 15.5449 21.6234 15.5449ZM21.6699 17.6859C21.6699 17.7116 21.6491 17.7324 21.6234 17.7324H19.5016C19.4759 17.7324 19.4551 17.7116 19.4551 17.6859V16.0016C19.4551 15.9759 19.4759 15.9551 19.5016 15.9551H21.6237C21.6494 15.9551 21.6702 15.9759 21.6702 16.0016V17.6859H21.6699ZM8.49844 19.4824H6.37656C6.12473 19.4824 5.91992 19.6872 5.91992 19.9391V21.6237C5.91992 21.8755 6.12473 22.0804 6.37656 22.0804H8.49871C8.75055 22.0804 8.95535 21.8755 8.95535 21.6237V19.9391C8.95508 19.6872 8.75027 19.4824 8.49844 19.4824ZM8.54492 21.6234C8.54492 21.6491 8.52414 21.6699 8.49844 21.6699H6.37656C6.35086 21.6699 6.33008 21.6491 6.33008 21.6234V19.9391C6.33008 19.9134 6.35086 19.8926 6.37656 19.8926H8.49871C8.52441 19.8926 8.5452 19.9134 8.5452 19.9391V21.6234H8.54492ZM12.8734 19.4824H10.7516C10.4997 19.4824 10.2949 19.6872 10.2949 19.9391V21.6237C10.2949 21.8755 10.4997 22.0804 10.7516 22.0804H12.8737C13.1255 22.0804 13.3304 21.8755 13.3304 21.6237V19.9391C13.3301 19.6872 13.1253 19.4824 12.8734 19.4824ZM12.9199 21.6234C12.9199 21.6491 12.8991 21.6699 12.8734 21.6699H10.7516C10.7259 21.6699 10.7051 21.6491 10.7051 21.6234V19.9391C10.7051 19.9134 10.7259 19.8926 10.7516 19.8926H12.8737C12.8994 19.8926 12.9202 19.9134 12.9202 19.9391V21.6234H12.9199ZM17.2484 19.4824H15.1266C14.8747 19.4824 14.6699 19.6872 14.6699 19.9391V21.6237C14.6699 21.8755 14.8747 22.0804 15.1266 22.0804H17.2487C17.5005 22.0804 17.7054 21.8755 17.7054 21.6237V19.9391C17.7051 19.6872 17.5003 19.4824 17.2484 19.4824ZM17.2949 21.6234C17.2949 21.6491 17.2741 21.6699 17.2484 21.6699H15.1266C15.1009 21.6699 15.0801 21.6491 15.0801 21.6234V19.9391C15.0801 19.9134 15.1009 19.8926 15.1266 19.8926H17.2487C17.2744 19.8926 17.2952 19.9134 17.2952 19.9391V21.6234H17.2949Z" fill="#797979"/>
</svg>
