<svg width="24" height="18" viewBox="0 0 24 18" fill="none" xmlns="http://www.w3.org/2000/svg">
<mask id="mask0_6_30" style="mask-type:luminance" maskUnits="userSpaceOnUse" x="0" y="0" width="25" height="18">
<path d="M0 0H24.0001V18H0V0Z" fill="white"/>
</mask>
<g mask="url(#mask0_6_30)">
<path fill-rule="evenodd" clip-rule="evenodd" d="M-1.5 0H25.5V18H-1.5V0Z" fill="#199D00"/>
<path fill-rule="evenodd" clip-rule="evenodd" d="M5.3042 5.10224C5.27302 5.52274 5.23565 6.26278 5.59294 6.33868C6.02511 6.38024 5.78679 5.60722 5.94324 5.46705C5.9728 5.39779 6.02733 5.39744 6.03183 5.48481V6.14047C6.02789 6.35373 6.16806 6.41652 6.27694 6.46057C6.39028 6.45181 6.46594 6.45561 6.51034 6.56586L6.5635 7.70004C6.5635 7.70004 6.82633 7.77527 6.83884 7.06209C6.85139 6.64338 6.75517 6.29287 6.81159 6.21138C6.81356 6.13133 6.9158 6.12655 6.98667 6.16557C7.09967 6.24524 7.14997 6.34364 7.32554 6.3043C7.59266 6.23068 7.75325 6.10074 7.75719 5.89564C7.74158 5.7007 7.71972 5.50576 7.63527 5.31082C7.64705 5.27534 7.5837 5.18352 7.59544 5.14804C7.64346 5.22324 7.71652 5.21698 7.73311 5.14804C7.68765 4.99824 7.61709 4.8547 7.50273 4.79254C7.40823 4.70929 7.26989 4.72631 7.21923 4.89998C7.19578 5.10009 7.29137 5.33785 7.43709 5.53167C7.46803 5.6074 7.51152 5.73322 7.4924 5.84653C7.41488 5.89079 7.33732 5.87233 7.27235 5.80374C7.27235 5.80374 7.05973 5.64427 7.05973 5.60884C7.11615 5.24757 7.07224 5.20661 7.04099 5.10635C7.01912 4.96794 6.95345 4.92357 6.90026 4.82904C6.84707 4.77264 6.7751 4.77264 6.74072 4.82904C6.64671 4.99198 6.69055 5.34172 6.75844 5.49841C6.80752 5.64248 6.88247 5.7329 6.84703 5.7329C6.81789 5.81432 6.75759 5.79552 6.71372 5.70154C6.65107 5.50731 6.63852 5.21748 6.63852 5.08701C6.61975 4.92519 6.59908 4.58006 6.49259 4.49238C6.42762 4.40393 6.33133 4.44706 6.29768 4.52782C6.29068 4.68841 6.28995 4.84897 6.30805 4.99698C6.38107 5.25654 6.40403 5.48481 6.43947 5.75062C6.44931 6.10668 6.23359 5.9051 6.24343 5.72858C6.29318 5.49929 6.28028 5.13838 6.23605 5.0469C6.20104 4.95542 6.15966 4.93285 6.07444 4.9479C6.00676 4.94379 5.83263 5.13391 5.78373 5.4493C5.78373 5.4493 5.74204 5.61165 5.72428 5.75579C5.70038 5.91867 5.59315 6.03363 5.51792 5.73287C5.45295 5.5143 5.41301 4.97616 5.30417 5.1022L5.3042 5.10224Z" fill="white"/>
<path fill-rule="evenodd" clip-rule="evenodd" d="M6.4785 6.82775C6.09713 7.01419 5.7283 7.1881 5.35315 7.36828C5.36686 7.11319 5.88819 6.65271 6.24369 6.64624C6.47509 6.65271 6.41694 6.73585 6.4785 6.82775Z" fill="white"/>
<path fill-rule="evenodd" clip-rule="evenodd" d="M6.2819 7.18033C5.68881 8.70917 7.67075 8.92218 7.89223 7.24295C7.91308 7.17404 7.99664 7.10513 8.01127 7.21788C7.96532 8.73832 6.47825 8.8428 6.22554 8.36447C6.16293 8.25172 6.14409 8.00109 6.13783 7.85069C6.10021 7.55207 5.94362 7.66693 5.91856 7.96347C5.89346 8.12846 5.89975 8.17448 5.89975 8.33318C5.9791 9.53408 7.89437 9.01823 8.20554 8.02616C8.37053 7.47684 8.17837 7.0717 8.26816 7.07377C8.45825 7.27845 8.72343 7.10091 8.78193 7.0299C8.80703 6.99439 8.86971 6.97147 8.91355 7.01738C9.06181 7.12398 9.32295 7.07374 9.37723 6.88579C9.40859 6.702 9.43366 6.51194 9.43991 6.31567C9.31873 6.35328 9.22898 6.37828 9.22061 6.42845L9.19554 6.59132C9.18514 6.64357 9.08062 6.64561 9.0765 6.57877C9.03055 6.36991 8.8405 6.34277 8.72561 6.66652C8.6483 6.72917 8.50841 6.74172 8.49375 6.64775C8.51253 6.43052 8.42481 6.40127 8.24942 6.50361C8.19299 6.07337 8.13664 5.66197 8.08021 5.23169C8.15334 5.22958 8.2202 5.28386 8.28707 5.20033C8.21387 4.97273 8.05936 4.50695 7.97369 4.47351C7.93192 4.42341 7.89634 4.45474 7.84213 4.46725C7.75023 4.4965 7.66459 4.57589 7.6917 4.73043C7.80033 5.39039 7.87135 5.89375 7.97998 6.55374C7.99664 6.63102 7.93192 6.73329 7.84839 6.72284C7.70636 6.6268 7.67096 6.43259 7.42862 6.44089C7.25316 6.443 7.05259 6.63306 7.0276 6.81692C6.99835 6.96303 6.98787 7.12173 7.02753 7.2492C7.15082 7.39746 7.29911 7.3829 7.42859 7.34947C7.53511 7.30563 7.62279 7.19911 7.66041 7.22414C7.68551 7.2555 7.66663 7.60629 7.15912 7.87576C6.85213 8.01357 6.60773 8.04497 6.47621 7.7943C6.39475 7.63765 6.48246 7.04241 6.2819 7.1803V7.18033Z" fill="white"/>
<path fill-rule="evenodd" clip-rule="evenodd" d="M8.79757 5.62601C8.91661 5.58214 9.48062 4.93681 9.48062 4.93681C9.45134 4.91174 9.42522 4.89293 9.39597 4.86787C9.36461 4.84073 9.36777 4.81359 9.39597 4.78641C9.53589 4.70499 9.49099 4.52639 9.4179 4.44497C9.29675 4.39062 9.19129 4.40841 9.11398 4.44807C9.01582 4.54207 8.9929 4.6924 9.07021 4.78641C9.14544 4.82192 9.22057 4.89817 9.1704 4.93994C8.93967 5.18638 8.30785 5.61142 8.38097 5.62601C8.39658 5.64689 8.78509 5.64584 8.79757 5.62601ZM5.39185 7.91011C5.18035 8.24705 5.16192 8.75045 5.27864 8.90053C5.34066 8.97145 5.44254 9.00249 5.51792 8.9803C5.65081 8.92265 5.70895 8.65342 5.67742 8.55491C5.63305 8.48552 5.59814 8.47451 5.55385 8.53357C5.46033 8.72342 5.42152 8.59316 5.41333 8.48706C5.39898 8.28586 5.41793 8.10055 5.43976 7.95381C5.46304 7.80341 5.43941 7.8494 5.39185 7.91011ZM14.43 7.37046C14.2254 6.93027 13.9423 6.49528 13.8523 6.32819C13.7622 6.16102 13.0822 5.17411 12.9821 5.06312C12.7612 4.80061 13.3408 5.17246 12.9087 4.65123C12.744 4.50991 12.7344 4.50129 12.5977 4.38598C12.5287 4.33704 12.3603 4.24764 12.3305 4.39582C12.3155 4.5265 12.3236 4.59734 12.3455 4.70615C12.3624 4.77868 12.4681 4.90014 12.52 4.97052C13.21 5.89794 13.8218 6.83451 14.4117 8.01207C14.5049 7.96777 14.4845 7.44412 14.43 7.37046H14.43Z" fill="white"/>
<path fill-rule="evenodd" clip-rule="evenodd" d="M13.5325 8.84317C13.4923 8.88832 13.6318 9.08139 13.813 9.08118C14.1162 9.04603 14.3831 8.87573 14.6302 8.42745C14.6963 8.3229 14.8124 8.0993 14.8158 7.92588C14.8389 6.90898 14.7649 6.11769 14.6126 5.38268C14.6028 5.3111 14.6087 5.22693 14.6209 5.20549C14.6405 5.18204 14.7071 5.20559 14.7424 5.14769C14.7942 5.09478 14.6048 4.65656 14.4968 4.48777C14.4585 4.4124 14.4451 4.36205 14.3816 4.49663C14.3149 4.60597 14.27 4.7968 14.2753 4.97511C14.4199 5.97646 14.4644 6.85242 14.5589 7.85377C14.5666 7.95059 14.5523 8.09132 14.4879 8.14743C14.2499 8.39606 13.9062 8.70209 13.5325 8.84317ZM17.6278 8.8379C17.4102 8.96366 17.41 9.10832 17.5859 9.11356C17.8891 9.07837 18.2473 9.0532 18.4944 8.68012C18.5605 8.57557 18.639 8.29287 18.6424 8.11945C18.6655 7.10255 18.6291 6.34353 18.4768 5.60859C18.467 5.53698 18.4354 5.3722 18.4475 5.35072C18.4671 5.30037 18.5659 5.3562 18.6013 5.29826C18.653 5.24539 18.3454 4.85013 18.2374 4.68134C18.1991 4.606 18.1857 4.55566 18.1223 4.6902C18.0555 4.79957 18.0322 4.99578 18.0589 5.16871C18.2196 6.25603 18.3393 7.07288 18.364 8.03659C18.3501 8.12806 18.3467 8.17739 18.3038 8.29263C18.2089 8.41427 18.1038 8.56632 18.0052 8.63983C17.9067 8.71331 17.6964 8.78348 17.6278 8.83794V8.8379Z" fill="white"/>
<path fill-rule="evenodd" clip-rule="evenodd" d="M17.7909 7.86304C17.7884 7.60875 17.7945 7.38917 17.7861 7.19953C17.7778 7.00986 17.7443 6.85542 17.6786 6.72081C17.6165 6.57646 17.6551 6.46048 17.6259 6.3067C17.5967 6.153 17.6039 5.9228 17.5599 5.74041C17.5478 5.66918 17.5108 5.44105 17.5223 5.41918C17.5402 5.36828 17.6086 5.42077 17.642 5.36177C17.692 5.30721 17.4684 4.72868 17.355 4.56348C17.3142 4.48941 17.2402 4.51479 17.1489 4.6352C17.0641 4.71448 17.0956 4.89522 17.1279 5.06713C17.3455 6.20236 17.5077 7.22987 17.4723 8.31054C17.4614 8.40244 17.7932 8.0365 17.7909 7.86304ZM16.1836 6.45503C16.0467 6.45253 15.7602 6.18876 15.6765 6.03421C15.6449 5.94558 15.6652 5.8591 15.693 5.80843C15.7437 5.77549 15.8217 5.73847 15.8799 5.77398C15.8799 5.77398 15.9404 5.8585 15.9287 5.86926C16.0034 5.90504 16.0351 5.88444 16.0427 5.85407C16.0478 5.80084 16.0206 5.76913 16.0203 5.71052C16.0519 5.55162 16.2336 5.5269 16.302 5.62826C16.3521 5.69003 16.3704 5.82134 16.378 5.90997C16.3772 5.95525 16.3039 5.90213 16.2623 5.91302C16.2206 5.92392 16.2105 5.97202 16.2073 6.01551C16.1997 6.13075 16.1861 6.31567 16.1836 6.45499V6.45503ZM13.6583 8.14499C13.696 7.79947 13.6444 7.18413 13.6409 6.98026C13.6271 6.49862 13.5484 5.56832 13.511 5.41289C13.4688 5.11993 13.6315 5.44502 13.6089 5.27473C13.5562 4.98219 13.3939 4.78388 13.2032 4.51592C13.1416 4.42873 13.1438 4.41097 13.0488 4.53729C12.9437 4.77565 13.0344 4.93965 13.0616 5.12531C13.1991 5.73021 13.2794 6.28677 13.3168 6.83697C13.3541 7.38716 13.3656 7.98208 13.3315 8.56156C13.4346 8.5656 13.6003 8.39481 13.6583 8.14499Z" fill="white"/>
<path fill-rule="evenodd" clip-rule="evenodd" d="M18.2567 7.59165C18.0154 7.18683 17.6513 6.74836 17.5541 6.58534C17.4568 6.42228 16.6342 5.36085 16.5293 5.25432C16.2284 4.93816 16.6674 5.20286 16.4717 4.95866C16.3062 4.77697 16.258 4.71995 16.1164 4.61068C16.0453 4.5648 16.0023 4.47716 15.979 4.6265C15.9697 4.75771 15.96 4.90951 15.9688 5.02008C15.9683 5.08157 16.0323 5.19705 16.0873 5.26512C16.8169 6.1616 17.6128 7.07696 18.2535 8.22773C18.3447 8.17939 18.3144 7.66288 18.2567 7.59165Z" fill="white"/>
<path fill-rule="evenodd" clip-rule="evenodd" d="M7.30984 6.84461C7.29247 6.87505 7.2538 6.9145 7.26677 6.95531C7.29384 6.99202 7.3155 6.99947 7.36064 7.00147C7.3998 7.00147 7.45451 7.01072 7.46628 6.98762C7.48738 6.96442 7.50337 6.91699 7.48583 6.87227C7.44505 6.77032 7.33114 6.80829 7.30984 6.84461Z" fill="#1BA400"/>
<path fill-rule="evenodd" clip-rule="evenodd" d="M15.4513 12.7455C15.774 12.7574 15.9852 12.7603 16.2722 12.7944C16.2722 12.7944 16.5197 12.77 16.608 12.7566C16.9816 12.721 16.9981 13.2901 16.9981 13.2901C16.994 13.6239 16.8652 13.6414 16.7007 13.6767C16.6067 13.6886 16.5573 13.6204 16.5079 13.5477C16.4459 13.5737 16.3617 13.5774 16.2596 13.5632C16.1251 13.5548 15.9906 13.5554 15.8562 13.547C15.7134 13.5344 15.6374 13.5618 15.4945 13.5492C15.4651 13.5955 15.4268 13.6595 15.3395 13.6389C15.2668 13.6308 15.1807 13.4268 15.206 13.2716C15.2585 13.1604 15.2441 13.1962 15.2386 13.1473C13.9194 13.1137 12.5875 13.0549 11.2934 13.0717C10.2809 13.0759 9.28089 13.1179 8.28094 13.16C7.74738 13.1515 7.33985 13.0675 7.05835 12.6557C7.08356 12.6557 8.4196 12.7314 8.81036 12.7062C9.533 12.6977 10.1926 12.6389 10.9279 12.6179C12.3774 12.6431 13.8143 12.6432 15.2637 12.744C15.125 12.6491 15.1201 12.425 15.3335 12.3703C15.3516 12.3578 15.361 12.4817 15.3929 12.4794C15.5636 12.4666 15.4887 12.6978 15.4512 12.7455L15.4513 12.7455ZM9.63193 4.75593C9.41227 5.38378 9.75779 6.07056 9.99734 6.00369C10.1702 6.07523 10.2802 5.74645 10.351 5.38624C10.3994 5.28513 10.436 5.27437 10.4608 5.32634C10.4544 5.80534 10.4952 5.91144 10.6184 6.05685C10.8931 6.2688 11.1203 6.08392 11.1382 6.06606L11.3521 5.85217C11.3997 5.80207 11.463 5.79915 11.5303 5.84327C11.5957 5.90269 11.5865 6.00527 11.7264 6.07643C11.8441 6.12354 12.0959 6.08733 12.1542 5.98587C12.2327 5.85136 12.2515 5.80516 12.2879 5.75415C12.3439 5.67959 12.4394 5.71274 12.4394 5.73629C12.4305 5.77788 12.3744 5.81951 12.4127 5.89439C12.4793 5.94435 12.4947 5.91221 12.5341 5.90111C12.6734 5.83448 12.7781 5.53133 12.7781 5.53133C12.7842 5.41855 12.721 5.42787 12.68 5.4511C12.6266 5.4838 12.6231 5.49424 12.5696 5.52694C12.5015 5.53706 12.3693 5.58224 12.3039 5.48106C12.2372 5.35938 12.2363 5.18961 12.1853 5.06692C12.1853 5.05799 12.0967 4.87363 12.1791 4.86182C12.2207 4.86955 12.3094 4.89303 12.3235 4.81833C12.3672 4.74548 12.2302 4.53926 12.1364 4.43509C12.055 4.34572 11.9422 4.33496 11.8333 4.42619C11.7571 4.49633 11.7681 4.57469 11.7531 4.64898C11.7337 4.73427 11.7379 4.83921 11.8244 4.95203C11.9005 5.10204 12.0394 5.29526 11.9938 5.56694C11.9938 5.56694 11.9127 5.69537 11.7714 5.67857C11.7125 5.66573 11.617 5.64074 11.566 5.26393C11.5273 4.97875 11.5751 4.57969 11.454 4.39262C11.4103 4.27966 11.3784 4.17057 11.2718 4.36379C11.2432 4.43966 11.1203 4.5548 11.2095 4.79161C11.2824 4.94173 11.312 5.18606 11.279 5.45796C11.2284 5.5352 11.2172 5.56135 11.151 5.63863C11.058 5.73865 10.957 5.71312 10.8797 5.67575C10.8074 5.62706 10.7509 5.60189 10.7179 5.4472C10.7239 5.20065 10.7376 4.79702 10.6925 4.71142C10.6261 4.57881 10.5165 4.62676 10.4697 4.66684C10.2448 4.87247 10.1337 5.21943 10.0658 5.49572C10.0034 5.69706 9.93705 5.63937 9.89036 5.55812C9.77681 5.45167 9.76907 4.6191 9.63193 4.756V4.75593Z" fill="white"/>
<path fill-rule="evenodd" clip-rule="evenodd" d="M10.2932 6.12073C10.393 6.05007 10.3463 6.00071 10.4955 6.14984C10.6823 6.46913 10.8023 6.88267 10.8203 7.24903C10.8124 7.33932 10.8761 7.39644 10.9052 7.37683C10.9225 7.16487 11.4379 6.86956 11.9105 6.82639C11.9828 6.81067 11.9476 6.67216 11.9594 6.60153C11.9311 6.33916 12.1069 6.10027 12.3532 6.08121C12.6886 6.13078 12.8002 6.3098 12.8058 6.58307C12.7696 7.10767 12.2231 7.19662 11.9161 7.23845C11.869 7.25628 11.8493 7.278 11.9161 7.3037L13.2026 7.30954L13.2682 7.34744C13.2761 7.37813 13.2495 7.35253 13.1987 7.43617C13.1479 7.51981 13.073 7.71267 13.0692 7.84145C12.6858 7.96471 12.2894 8.01871 11.8864 8.06744C11.7464 8.13824 11.677 8.23257 11.7058 8.33874C11.7529 8.45651 12.063 8.57414 12.063 8.57973C12.1219 8.61665 12.1916 8.70285 12.0463 8.87944C11.4188 8.85184 10.9325 8.58476 10.7641 8.20782C10.7134 8.16848 10.6587 8.2076 10.6237 8.25855C10.3787 8.57439 10.1377 8.8588 9.71993 9.0098C9.47081 9.07203 9.21582 8.97158 9.09538 8.80846C9.01476 8.71561 9.01782 8.6131 8.98822 8.59088C8.85357 8.65043 7.695 9.14272 7.84184 8.9134C8.1238 8.61158 8.61198 8.38992 9.0431 8.09205C9.07421 7.99224 9.13078 7.65463 9.30104 7.54466C9.31088 7.54547 9.27407 7.74294 9.27777 7.82619C9.2797 7.89454 9.27274 7.92133 9.28771 7.90375C9.31679 7.88519 9.83991 7.47414 9.88034 7.3481C9.93132 7.27582 9.89564 7.09276 9.89564 7.08721C9.79755 6.83437 9.65991 6.81289 9.6089 6.68727C9.56299 6.52039 9.58377 6.32991 9.67914 6.27682C9.76387 6.19994 9.86417 6.20943 9.9567 6.29345C10.0624 6.38809 10.1562 6.57305 10.1834 6.71083C10.1652 6.76532 10.0451 6.67462 10.0034 6.70169C10.0772 6.77805 10.1116 6.86615 10.1383 6.97394C10.2064 7.26253 10.1856 7.37472 10.117 7.56133C9.88477 8.04965 9.58795 8.19537 9.32825 8.37628C9.32132 8.37874 9.31672 8.50021 9.41438 8.56588C9.44806 8.60125 9.58352 8.61939 9.74281 8.56834C10.0506 8.40051 10.3701 8.09131 10.5287 7.74685C10.5748 7.4863 10.5109 7.21001 10.4432 6.96905C10.3411 6.73357 10.2209 6.39734 10.2209 6.39178C10.2169 6.24494 10.2289 6.194 10.2933 6.12073H10.2932ZM6.9249 4.76264C7.07298 4.83327 7.35138 4.80321 7.3396 4.56443C7.3396 4.54334 7.33422 4.4719 7.33211 4.45253C7.30188 4.38215 7.21944 4.39955 7.20073 4.47222C7.19486 4.49602 7.21121 4.5348 7.18966 4.54675C7.17728 4.55923 7.12996 4.55188 7.13193 4.48593C7.13193 4.46491 7.11646 4.44233 7.10711 4.42898C7.09776 4.42286 7.09182 4.42117 7.07487 4.42117C7.0542 4.42198 7.05455 4.42736 7.04323 4.44473C7.03842 4.46237 7.03181 4.47964 7.03181 4.49967C7.02921 4.52316 7.02035 4.53153 7.00309 4.53501C6.98378 4.53501 6.98814 4.53712 6.9725 4.52717C6.96322 4.51697 6.95162 4.5131 6.95162 4.49577C6.95162 4.47781 6.94754 4.44873 6.94212 4.43689C6.93393 4.42606 6.92075 4.42107 6.90591 4.41723C6.82505 4.41751 6.81943 4.50976 6.82411 4.54478C6.81802 4.55139 6.81461 4.71687 6.9249 4.76264Z" fill="white"/>
<path fill-rule="evenodd" clip-rule="evenodd" d="M11.2656 6.59988C11.4137 6.67051 11.7662 6.62987 11.6803 6.40167C11.6803 6.38058 11.6749 6.30911 11.6728 6.28977C11.6426 6.21939 11.5601 6.23679 11.5414 6.30946C11.5356 6.33326 11.5519 6.37204 11.5304 6.38399C11.518 6.39647 11.4707 6.38912 11.4726 6.32317C11.4726 6.30214 11.4572 6.27957 11.4478 6.26621C11.4385 6.2601 11.4325 6.25841 11.4156 6.25841C11.3949 6.25922 11.3953 6.2646 11.3839 6.28196C11.3791 6.29961 11.3725 6.31687 11.3725 6.33691C11.3699 6.3604 11.361 6.36877 11.3438 6.37225C11.3245 6.37225 11.3288 6.37436 11.3132 6.36441C11.3039 6.35421 11.2923 6.35034 11.2923 6.33301C11.2923 6.31505 11.2882 6.28597 11.2828 6.27412C11.2746 6.2633 11.2614 6.2583 11.2466 6.25447C11.1658 6.25475 11.1601 6.347 11.1648 6.38202C11.1587 6.38863 11.1553 6.55411 11.2656 6.59988ZM13.7968 5.83945C13.9449 5.91008 14.2233 5.88002 14.2116 5.64124C14.2116 5.62015 14.2062 5.54871 14.2041 5.52934C14.1738 5.45896 14.0914 5.47636 14.0727 5.54903C14.0668 5.57283 14.0832 5.61161 14.0616 5.62356C14.0492 5.63604 14.0019 5.62869 14.0039 5.56274C14.0039 5.54171 13.9884 5.51914 13.9791 5.50578C13.9697 5.49967 13.9638 5.49798 13.9468 5.49798C13.9262 5.49879 13.9265 5.50417 13.9152 5.52154C13.9104 5.53918 13.9037 5.55644 13.9037 5.57648C13.9012 5.59997 13.8923 5.60834 13.875 5.61182C13.8557 5.61182 13.8601 5.61393 13.8444 5.60398C13.8352 5.59378 13.8235 5.58991 13.8235 5.57258C13.8235 5.55462 13.8195 5.52554 13.8141 5.5137C13.8059 5.50287 13.7927 5.49787 13.7779 5.49404C13.697 5.49432 13.6914 5.58657 13.6961 5.62159C13.69 5.6282 13.6866 5.79368 13.7968 5.83945ZM15.1078 7.74949C14.8498 8.04034 14.9635 8.52135 15.0218 8.62499C15.1069 8.79521 15.1754 8.90437 15.341 8.98857C15.4918 9.09956 15.6093 9.0302 15.6741 8.95247C15.8258 8.79521 15.8276 8.39369 15.8988 8.31414C15.9488 8.16799 16.0746 8.19295 16.1357 8.25771C16.1949 8.34279 16.2646 8.39763 16.3515 8.44397C16.4931 8.56884 16.6621 8.59162 16.8286 8.47786C16.9424 8.41402 17.0164 8.33154 17.083 8.16782C17.157 7.96989 17.1157 7.05519 17.1009 6.51308C17.0952 6.47054 16.9538 5.76759 16.9538 5.75975C16.9538 5.75188 16.9351 5.40098 16.9196 5.31738C16.9169 5.28346 16.9085 5.27372 16.944 5.27801C16.9817 5.30975 16.9869 5.31176 17.0104 5.3222C17.0485 5.32916 17.0825 5.26437 17.0596 5.20478L16.7063 4.55323C16.678 4.52531 16.6414 4.49466 16.5964 4.5611C16.5534 4.59875 16.5077 4.66692 16.5091 4.75457C16.5196 4.90897 16.5467 5.06605 16.5571 5.22049L16.6985 6.01334C16.743 6.57851 16.7541 7.04106 16.7986 7.60623C16.7924 7.84554 16.718 8.05419 16.6482 8.08428C16.6482 8.08428 16.542 8.14581 16.4708 8.07785C16.419 8.05707 16.2118 7.73244 16.2118 7.73244C16.1058 7.6353 16.036 7.66308 15.9606 7.73244C15.7527 7.93322 15.6586 8.30879 15.5173 8.56786C15.4809 8.62569 15.3779 8.67516 15.2638 8.56364C14.9741 8.16785 15.1439 7.60468 15.1078 7.74949ZM13.8633 4.45324C13.9959 4.50879 14.0895 4.77749 14.059 4.90869C14.0326 5.07101 13.9623 5.2463 13.9117 5.22348C13.8567 5.20309 13.9491 5.06211 13.8963 4.91425C13.8669 4.81799 13.6859 4.6421 13.705 4.59025C13.6676 4.48161 13.7819 4.43408 13.8633 4.45324Z" fill="white"/>
<path fill-rule="evenodd" clip-rule="evenodd" d="M15.535 7.9087C15.5629 7.586 15.5158 7.38923 15.5074 7.19957C15.499 7.0099 15.2929 5.56273 15.2511 5.41922C15.2006 5.14788 15.4515 5.38283 15.424 5.22502C15.3373 5.02603 15.1213 4.73634 15.0535 4.56352C15.0127 4.48948 15.0298 4.42359 14.9385 4.54404C14.8538 4.82093 14.8244 5.04727 14.8568 5.21921C15.0743 6.35441 15.2974 7.29836 15.262 8.37902C15.3651 8.37973 15.484 8.14295 15.535 7.9087ZM17.8015 4.91058C17.9224 4.9707 17.9933 5.30746 17.9799 5.40368C17.9559 5.57943 17.8917 5.7692 17.8456 5.74448C17.7955 5.72241 17.8556 5.48387 17.8315 5.40969C17.8048 5.30549 17.6398 5.11508 17.6572 5.05894C17.6231 4.94134 17.7273 4.88987 17.8015 4.91058ZM8.81309 7.29839C8.92875 7.34255 8.9966 7.59001 8.98381 7.66075C8.96074 7.78984 8.89933 7.92931 8.85527 7.91116C8.80732 7.89492 8.86491 7.71963 8.84188 7.66514C8.83211 7.53295 8.67155 7.4645 8.67489 7.40741C8.64494 7.30243 8.74207 7.2831 8.81309 7.29839Z" fill="white"/>
<path fill-rule="evenodd" clip-rule="evenodd" d="M11.6083 7.67002C11.7577 7.67951 11.8323 7.79665 11.6924 7.8458C11.5545 7.89302 11.4219 7.92993 11.4212 8.1293C11.4723 8.40711 11.3513 8.31176 11.2791 8.27404C11.194 8.21297 10.9554 8.06592 10.9213 7.74846C10.9162 7.67269 10.9753 7.60892 11.0704 7.60938C11.2137 7.6483 11.425 7.65114 11.6083 7.67002H11.6083Z" fill="#1B9D00"/>
<path fill-rule="evenodd" clip-rule="evenodd" d="M5.72103 4.37303C5.89172 4.4245 5.90181 4.67537 5.88922 4.74871C5.86648 4.88258 5.80601 5.02715 5.76259 5.0083C5.71534 4.9915 5.76073 4.80977 5.73805 4.75324C5.71274 4.67386 5.56853 4.52881 5.58487 4.48606C5.55278 4.39644 5.65107 4.35721 5.72103 4.37303ZM9.09185 5.55568C8.96089 5.62652 8.91009 5.83764 8.99166 5.96061C9.0678 6.06889 9.18807 6.02875 9.20411 6.02875C9.33243 6.04481 9.40854 5.78821 9.40854 5.78821C9.40854 5.78821 9.41258 5.71607 9.26021 5.8524C9.19609 5.86443 9.18807 5.84034 9.17204 5.80424C9.15868 5.73744 9.16136 5.67064 9.19208 5.60381C9.21479 5.53969 9.16533 5.5116 9.09185 5.55568ZM10.0741 4.276C10.0083 4.32012 9.87731 4.45582 9.8733 4.6122C9.86933 4.7004 9.85291 4.70012 9.91064 4.75627C9.95237 4.81645 9.99445 4.81104 10.0787 4.76692C10.1271 4.73127 10.1434 4.70761 10.1597 4.64784C10.1798 4.54765 10.0538 4.69538 10.0377 4.58386C10.0097 4.48029 10.0906 4.43789 10.1668 4.3377C10.1693 4.26904 10.1678 4.22041 10.0741 4.276ZM10.8655 4.41662C10.8371 4.47927 10.8031 4.80661 10.8088 4.80661C10.7861 4.90413 10.9108 4.94586 10.9675 4.8205C11.0526 4.59068 11.0526 4.49319 11.0582 4.39567C11.0318 4.24717 10.9316 4.25181 10.8655 4.41662ZM15.8549 6.95561C15.8719 6.93859 16.5579 6.45101 16.5579 6.45101C16.6278 6.42643 16.6127 6.70238 16.5806 6.70048C16.5938 6.75525 15.904 7.22395 15.8548 7.20507C15.8208 7.22965 15.7868 7.01611 15.8548 6.95561H15.8549ZM16.4803 6.95139C16.6012 7.0115 16.6494 7.36528 16.636 7.4615C16.6403 7.64861 16.5195 7.79865 16.4734 7.77397C16.4232 7.75189 16.4778 7.5417 16.4537 7.46752C16.427 7.36331 16.3243 7.16721 16.3416 7.11107C16.3075 6.99347 16.4061 6.93068 16.4803 6.95139ZM12.3997 8.47506C12.4474 8.40531 12.5948 8.30494 12.5982 8.30494C12.6662 8.27091 12.7326 8.33162 12.7286 8.32761C12.7399 8.39568 12.6855 8.45899 12.7026 8.54973C12.7174 8.58629 12.7283 8.6269 12.7953 8.61143C12.9043 8.52572 13.0052 8.5202 13.1141 8.51475C13.1976 8.51978 13.2009 8.66111 13.1481 8.66216C12.947 8.70586 12.8568 8.75972 12.7132 8.81453C12.6452 8.85422 12.5868 8.80387 12.5868 8.79821C12.5868 8.79255 12.547 8.75961 12.5748 8.66947C12.5797 8.59719 12.5506 8.55757 12.4904 8.56576C12.4451 8.5903 12.4051 8.60654 12.3824 8.55441C12.3735 8.51591 12.3706 8.49717 12.3997 8.47506ZM17.202 8.66561C17.2314 8.70301 17.2505 8.73764 17.1997 8.79909C17.1516 8.84318 17.1177 8.86747 17.0696 8.91156C17.0469 8.9503 17.0323 9.00908 17.1018 9.02782C17.2301 9.06389 17.5268 8.87145 17.5268 8.86744C17.5749 8.83137 17.5589 8.7632 17.5548 8.7632C17.5268 8.73114 17.4636 8.75019 17.4211 8.74499C17.4008 8.74499 17.3344 8.73493 17.366 8.67615C17.3924 8.63959 17.4018 8.6172 17.4197 8.57212C17.4398 8.52804 17.4225 8.49865 17.3504 8.47457C17.2769 8.46121 17.2475 8.46789 17.166 8.47457C17.1219 8.48392 17.1068 8.50364 17.0988 8.55708C17.102 8.63815 17.1513 8.63354 17.202 8.66561Z" fill="white"/>
<path fill-rule="evenodd" clip-rule="evenodd" d="M12.426 6.67071C12.4072 6.70323 12.3436 6.70165 12.2839 6.66719C12.2243 6.63274 12.1912 6.57835 12.21 6.5458C12.2288 6.51324 12.2924 6.51486 12.352 6.54938C12.4117 6.58391 12.4448 6.63819 12.426 6.67071ZM9.29453 4.78654C9.25888 4.79526 9.21229 4.76348 9.19046 4.71556C9.16863 4.66765 9.17988 4.62173 9.21549 4.61301C9.25111 4.60429 9.29772 4.63604 9.31956 4.68396C9.34139 4.73188 9.33017 4.77783 9.29453 4.78654Z" fill="#259F00"/>
<path fill-rule="evenodd" clip-rule="evenodd" d="M15.4889 13.1825C15.8177 13.1985 16.1266 13.1862 16.4553 13.2023C16.5149 13.2529 16.4723 13.3772 16.4326 13.3683C16.3258 13.3656 16.2642 13.363 16.1573 13.3602C16.1536 13.2555 15.8863 13.2727 15.894 13.3636C15.7497 13.381 15.6196 13.3586 15.4753 13.3532C15.4326 13.3001 15.4381 13.2044 15.489 13.1825H15.4889Z" fill="#209000"/>
</g>
</svg>
