<svg width="43" height="48" viewBox="0 0 43 48" fill="none" xmlns="http://www.w3.org/2000/svg">
<path d="M36.7476 19.7848C35.4012 20.5794 33.658 20.1437 32.8548 18.8155C30.5612 15.0291 26.3661 12.6943 21.9017 12.7246C20.9592 12.7293 20.0309 12.8388 19.1333 13.0415V7.33979C20.0238 7.19998 20.9332 7.12542 21.8615 7.11843C28.3314 7.07649 34.4115 10.4551 37.7326 15.9402C38.5357 17.2707 38.0964 18.9903 36.7476 19.7848Z" fill="#FE9C2D"/>
<path d="M31.9453 37.2232C32.7059 38.577 32.2052 40.2826 30.8328 41.0306C28.1778 42.4776 25.1613 43.2512 22.1118 43.2722C17.0144 43.3048 12.3823 41.2729 9.03515 37.9712C5.74472 34.7254 3.69677 30.2586 3.66134 25.3188C3.61882 19.2652 6.61635 13.878 11.2366 10.5646V18.6197C9.98709 20.6003 9.3257 22.8908 9.34223 25.2791C9.38947 32.1576 15.0987 37.7125 22.0717 37.6659C24.1763 37.652 26.255 37.1184 28.0856 36.1234C29.4604 35.3755 31.1895 35.8671 31.9453 37.2232Z" fill="#FE9C2D"/>
<path d="M29.0516 18.3122C26.373 15.6699 22.5133 14.8823 19.1307 15.9495C18.7552 16.0683 18.3867 16.2081 18.0253 16.3735V5.66442C18.0253 5.57355 18.0206 5.48034 18.0111 5.39413C17.8717 3.9751 16.66 2.86365 15.1836 2.86365C14.3971 2.86365 13.6884 3.17821 13.1735 3.68384C12.6609 4.1918 12.342 4.89316 12.342 5.66675V23.6901C12.342 23.8648 12.3586 24.0349 12.3893 24.2003C12.3562 24.5312 12.3397 24.8644 12.342 25.1976C12.3562 27.6536 13.3081 30.1025 15.2025 31.9712C19.0197 35.7367 25.2321 35.7367 29.0493 31.9712C32.8712 28.2058 32.8712 22.0776 29.0516 18.3122ZM25.036 28.0077C23.4345 29.5875 20.8267 29.5875 19.2252 28.0077C18.4363 27.2295 18.0371 26.2136 18.0253 25.1953C18.0087 24.1817 18.3772 23.1634 19.1307 22.3735C19.1591 22.3409 19.1922 22.3083 19.2229 22.2757C20.8244 20.6959 23.4298 20.6959 25.0337 22.2757C26.6376 23.8555 26.6376 26.4279 25.036 28.0077Z" fill="#040405"/>
</svg>
