<svg width="24" height="24" viewBox="0 0 24 24" fill="none" xmlns="http://www.w3.org/2000/svg">
<path d="M19.6875 15.1875V19.875C19.6875 21.1176 18.6801 22.125 17.4375 22.125H6.5625C5.31986 22.125 4.3125 21.1176 4.3125 19.875V4.125C4.3125 2.88236 5.31986 1.875 6.5625 1.875H14.8915C15.2362 1.875 15.5671 2.01062 15.8127 2.25255L18.3756 4.77765L19.3382 5.81732C19.5628 6.05992 19.6875 6.37836 19.6875 6.70898V11.3438" stroke="#040405" stroke-width="0.75"/>
<path d="M15.1875 2.25V5.0625C15.1875 5.99449 15.943 6.75 16.875 6.75H19.6875" stroke="#040405" stroke-width="0.75"/>
<path d="M6.5625 11.0625H17.25M6.5625 13.6875H15.1875M6.5625 16.3125H12.9375M6.5625 18.9375H12.375M6.5625 8.4375H13.5" stroke="#040405" stroke-width="0.75" stroke-linecap="round"/>
<path d="M14.4512 17.0491C14.5291 16.6952 14.7067 16.371 14.9629 16.1148L20.0291 11.0486C20.5393 10.5385 21.3663 10.5385 21.8765 11.0486C22.3867 11.5588 22.3867 12.3859 21.8765 12.8961L16.8104 17.9623C16.5542 18.2185 16.23 18.3961 15.8761 18.474L14.0487 18.8766L14.4512 17.0491Z" fill="#FE9C2D" stroke="#FE9C2D" stroke-width="0.75"/>
</svg>
