<svg width="24" height="24" viewBox="0 0 24 24" fill="none" xmlns="http://www.w3.org/2000/svg">
<path d="M14.25 6.0752C14.025 6.0752 13.875 5.9252 13.875 5.7002V4.5752C13.875 4.3502 14.025 4.2002 14.25 4.2002C14.475 4.2002 14.625 4.3502 14.625 4.5752V5.7002C14.625 5.9252 14.475 6.0752 14.25 6.0752ZM16.575 5.9252C16.5 5.9252 16.425 5.9252 16.425 5.8502C16.275 5.7752 16.2 5.5502 16.275 5.3252L16.65 4.6502C16.725 4.5002 16.95 4.4252 17.175 4.5002C17.325 4.5752 17.4 4.8002 17.325 5.0252L16.95 5.7002C16.875 5.8502 16.725 5.9252 16.575 5.9252ZM18.45 7.8002C18.3 7.8002 18.225 7.7252 18.15 7.5752C18.075 7.4252 18.075 7.2002 18.3 7.0502L18.9 6.7502C19.05 6.6752 19.275 6.6752 19.425 6.9002C19.5 7.0502 19.5 7.2752 19.275 7.4252L18.675 7.8002H18.45ZM19.125 13.0502C19.05 13.0502 18.975 13.0502 18.975 12.9752L18.3 12.6002C18.15 12.5252 18.075 12.3002 18.15 12.0752C18.225 11.9252 18.45 11.8502 18.675 11.9252L19.35 12.3002C19.5 12.3752 19.575 12.6002 19.5 12.8252C19.35 12.9752 19.275 13.0502 19.125 13.0502ZM19.875 10.2002H18.375C18.15 10.2002 18 10.0502 18 9.8252C18 9.6002 18.15 9.4502 18.375 9.4502H19.875C20.1 9.4502 20.25 9.6002 20.25 9.8252C20.25 10.0502 20.1 10.2002 19.875 10.2002ZM17.25 11.3252H15C14.925 11.3252 14.775 11.2502 14.7 11.1752C14.625 11.1002 14.625 10.9502 14.625 10.8752L15.225 7.8752C15.3 7.6502 15.45 7.5752 15.675 7.5752C15.9 7.6502 16.05 7.8002 15.975 8.0252L15.525 10.5752H17.25C17.475 10.5752 17.625 10.7252 17.625 10.9502C17.625 11.1752 17.475 11.3252 17.25 11.3252Z" fill="#040405"/>
<path d="M16.5001 12.0748C16.2751 12.0748 16.1251 11.9248 16.1251 11.6998V9.44984C16.1251 9.22484 16.2751 9.07484 16.5001 9.07484C16.7251 9.07484 16.8751 9.22484 16.8751 9.44984V11.6998C16.8751 11.9248 16.7251 12.0748 16.5001 12.0748ZM13.5001 12.0748H11.2501C11.1001 12.0748 10.9501 11.9998 10.8751 11.8498C10.8001 11.6998 10.8751 11.5498 10.9501 11.4748L12.9001 9.59984C13.0501 9.44984 13.1251 9.29984 13.1251 9.07484C13.1251 8.69984 12.7501 8.32484 12.3751 8.32484C12.0001 8.32484 11.6251 8.69984 11.6251 9.07484C11.6251 9.29984 11.4751 9.44984 11.2501 9.44984C11.0251 9.44984 10.8751 9.29984 10.8751 9.07484C10.8751 8.24984 11.5501 7.57484 12.3751 7.57484C13.2001 7.57484 13.8751 8.24984 13.8751 9.07484C13.8751 9.44984 13.7251 9.82484 13.4251 10.1248L12.1501 11.3248H13.5001C13.7251 11.3248 13.8751 11.4748 13.8751 11.6998C13.8751 11.9248 13.7251 12.0748 13.5001 12.0748ZM11.8501 5.99984C11.7001 5.99984 11.6251 5.92484 11.5501 5.77484L11.1751 5.17484C11.1001 5.02484 11.1001 4.79984 11.3251 4.64984C11.4751 4.57484 11.7001 4.57484 11.8501 4.79984L12.2251 5.39984C12.3001 5.54984 12.3001 5.77484 12.0751 5.92484C11.9251 5.99984 11.8501 5.99984 11.8501 5.99984Z" fill="#040405"/>
<path d="M15.0755 20.1752C14.7755 20.1752 14.5505 20.1752 14.2505 20.1002C12.4505 19.6502 10.8755 18.7502 9.60047 17.4752L6.52547 14.4002C5.25047 13.1252 4.35047 11.4752 3.90047 9.7502C3.60047 8.6252 3.97547 7.35019 4.80047 6.5252L6.22547 5.1002C6.67547 4.6502 7.35047 4.6502 7.80047 5.1002L9.45047 6.7502C9.82547 7.1252 9.90047 7.72519 9.60047 8.17519L8.55047 9.7502C8.25047 10.2002 8.32547 10.8002 8.70047 11.1752L12.8255 15.3002C13.2005 15.6752 13.8005 15.7502 14.2505 15.4502L15.9005 14.3252C16.3505 14.0252 16.9505 14.1002 17.3255 14.4752L18.9755 16.1252C19.4255 16.5752 19.4255 17.2502 18.9755 17.7002L17.5505 19.1252C16.8005 19.8002 15.9755 20.1752 15.0755 20.1752ZM6.97547 5.4002C6.90047 5.4002 6.75047 5.4002 6.67547 5.4752L5.25047 6.9752C4.57547 7.6502 4.35047 8.5502 4.57547 9.4502C4.95047 11.1002 5.85047 12.6002 7.05047 13.7252L10.1255 16.8002C11.3255 18.0002 12.8255 18.8252 14.4005 19.2752C15.3005 19.5002 16.2755 19.2002 16.8755 18.6002L18.3005 17.1752C18.4505 17.0252 18.4505 16.8002 18.3005 16.6502L16.6505 15.0002C16.5005 14.8502 16.3505 14.8502 16.2005 14.9252L14.5505 16.0502C13.8005 16.5752 12.8255 16.4252 12.1505 15.8252L8.02547 11.7002C7.42547 11.1002 7.27547 10.0502 7.80047 9.30019L8.92547 7.65019C9.00047 7.50019 9.00047 7.2752 8.85047 7.2002L7.27547 5.4752C7.20047 5.4752 7.12547 5.4002 6.97547 5.4002ZM18.2255 14.1752C18.1505 14.1752 18.0005 14.1752 17.9255 14.1002C17.7755 13.9502 17.7755 13.7252 17.9255 13.5752C18.9005 12.6002 19.4255 11.2502 19.4255 9.9002C19.4255 6.9752 17.1005 4.6502 14.1755 4.6502C12.7505 4.6502 11.4755 5.1752 10.5005 6.1502L10.4255 6.2252C10.2755 6.3752 10.0505 6.3002 9.90047 6.1502C9.75047 6.0002 9.75047 5.7752 9.90047 5.6252C11.1755 4.5002 12.6755 3.8252 14.2505 3.8252C17.5505 3.8252 20.2505 6.5252 20.2505 9.82519C20.2505 11.4002 19.6505 12.9002 18.5255 14.0252C18.4505 14.1752 18.3005 14.1752 18.2255 14.1752Z" fill="#040405"/>
<path d="M6.97547 5.4002C6.90047 5.4002 6.75047 5.4002 6.67547 5.4752L5.25047 6.9752C4.57547 7.6502 4.35047 8.5502 4.57547 9.4502C4.95047 11.1002 5.85047 12.6002 7.05047 13.7252L10.1255 16.8002C11.3255 18.0002 12.8255 18.8252 14.4005 19.2752C15.3005 19.5002 16.2755 19.2002 16.8755 18.6002L18.3005 17.1752C18.4505 17.0252 18.4505 16.8002 18.3005 16.6502L16.6505 15.0002C16.5005 14.8502 16.3505 14.8502 16.2005 14.9252L14.5505 16.0502C13.8005 16.5752 12.8255 16.4252 12.1505 15.8252L8.02547 11.7002C7.42547 11.1002 7.27547 10.0502 7.80047 9.30019L8.92547 7.65019C9.00047 7.50019 9.00047 7.2752 8.85047 7.2002L7.27547 5.4752C7.20047 5.4752 7.12547 5.4002 6.97547 5.4002Z" fill="#FE9C2D"/>
<path d="M8.32461 9.6C8.24961 9.6 8.09961 9.6 8.02461 9.525L5.39961 6.825C5.24961 6.675 5.24961 6.45 5.39961 6.3C5.54961 6.15 5.77461 6.15 5.92461 6.3L8.62461 8.925C8.77461 9.075 8.77461 9.3 8.62461 9.45C8.54961 9.525 8.39961 9.6 8.32461 9.6ZM17.3246 18.6C17.2496 18.6 17.0996 18.6 17.0246 18.525L14.3996 15.9C14.2496 15.75 14.2496 15.525 14.3996 15.375C14.5496 15.225 14.7746 15.225 14.9246 15.375L17.5496 18C17.6996 18.15 17.6996 18.375 17.5496 18.525C17.5496 18.6 17.3996 18.6 17.3246 18.6Z" fill="#040405"/>
</svg>
