<svg width="24" height="24" viewBox="0 0 24 24" fill="none" xmlns="http://www.w3.org/2000/svg">
<path d="M9.08449 9.75884H8.2129C8.04124 9.75884 7.9016 9.89848 7.9016 10.0701V10.9417C7.9016 11.1134 8.04124 11.253 8.2129 11.253H9.08449C9.25615 11.253 9.39579 11.1134 9.39579 10.9417V10.0701C9.39579 9.89843 9.25615 9.75884 9.08449 9.75884ZM5.28691 10.9417V10.0701C5.28691 9.89843 5.14727 9.75879 4.97562 9.75879H4.10402C3.93237 9.75879 3.79272 9.89843 3.79272 10.0701V10.9417C3.79272 11.1133 3.93237 11.253 4.10402 11.253H4.97562C5.14727 11.253 5.28691 11.1133 5.28691 10.9417Z" fill="#FE9C2D"/>
<path d="M8.64881 22.459C6.17719 22.459 4.16639 20.4482 4.16639 17.9766C4.16639 15.5049 6.17719 13.4941 8.64881 13.4941C10.2636 13.4941 11.73 14.3473 12.5307 15.7354H15.3934V2.68252C15.3934 1.2292 14.211 0.046875 12.7577 0.046875H4.53994C3.08667 0.046875 1.9043 1.2292 1.9043 2.68252V21.3174C1.9043 22.7707 3.08667 23.9531 4.53994 23.9531H12.7577C14.211 23.9531 15.3934 22.7707 15.3934 21.3174V20.2177H12.5307C11.7301 21.6058 10.2637 22.459 8.64881 22.459ZM10.143 10.9417C10.143 11.5252 9.6682 12 9.08461 12H8.21302C7.62942 12 7.15467 11.5252 7.15467 10.9417V10.0701C7.15467 9.48647 7.62942 9.01172 8.21302 9.01172H9.08461C9.6682 9.01172 10.143 9.48647 10.143 10.0701V10.9417ZM14.2519 10.9417C14.2519 11.5252 13.7771 12 13.1935 12H12.3219C11.7383 12 11.2636 11.5252 11.2636 10.9417V10.0701C11.2636 9.48647 11.7383 9.01172 12.3219 9.01172H13.1935C13.7771 9.01172 14.2519 9.48647 14.2519 10.0701V10.9417ZM3.0458 3.21366C3.0458 2.29134 3.79613 1.54102 4.71839 1.54102H12.5793C13.5015 1.54102 14.2519 2.29134 14.2519 3.21366V5.84498C14.2519 6.76725 13.5015 7.51762 12.5793 7.51762H4.71839C3.79613 7.51762 3.0458 6.7673 3.0458 5.84498V3.21366ZM3.0458 10.9417V10.0701C3.0458 9.48647 3.52055 9.01172 4.10414 9.01172H4.97573C5.55933 9.01172 6.03408 9.48647 6.03408 10.0701V10.9417C6.03408 11.5252 5.55933 12 4.97573 12H4.10414C3.52055 12 3.0458 11.5252 3.0458 10.9417Z" fill="#FE9C2D"/>
<path d="M13.1933 9.75879H12.3217C12.1501 9.75879 12.0104 9.89843 12.0104 10.0701V10.9417C12.0104 11.1133 12.1501 11.253 12.3217 11.253H13.1933C13.365 11.253 13.5046 11.1133 13.5046 10.9417V10.0701C13.5046 9.89838 13.365 9.75879 13.1933 9.75879ZM4.71822 6.77051H12.5791C13.0894 6.77051 13.5047 6.35534 13.5047 5.84496V3.21363C13.5047 2.70326 13.0895 2.28809 12.5791 2.28809H4.71822C4.2079 2.28809 3.79272 2.70326 3.79272 3.21363V5.84496C3.79272 6.35529 4.2079 6.77051 4.71822 6.77051ZM9.97291 15.7354H11.6381C10.9399 14.8009 9.84279 14.2412 8.64865 14.2412C6.58896 14.2412 4.91327 15.9169 4.91327 17.9766C4.91327 20.0363 6.58891 21.712 8.64865 21.712C9.84279 21.712 10.9399 21.1522 11.6381 20.2178H9.97291C9.03672 20.2178 8.27515 19.4562 8.27515 18.5201V17.4332C8.27515 16.4969 9.03672 15.7354 9.97291 15.7354Z" fill="#FE9C2D"/>
<path d="M20.6018 16.4824H9.97294C9.44873 16.4824 9.02222 16.9089 9.02222 17.4331V18.52C9.02222 19.0442 9.44873 19.4707 9.97294 19.4707H20.6018C21.4257 19.4707 22.0959 18.8004 22.0959 17.9766C22.0959 17.1527 21.4257 16.4824 20.6018 16.4824Z" fill="#FE9C2D"/>
</svg>
