<svg width="28" height="28" viewBox="0 0 28 28" fill="none" xmlns="http://www.w3.org/2000/svg">
<path fill-rule="evenodd" clip-rule="evenodd" d="M22.75 19.3156C22.75 19.0715 22.6529 18.8378 22.4814 18.6655C22.309 18.494 22.0754 18.3968 21.8321 18.3968C18.809 18.3968 9.191 18.3968 6.16787 18.3968C5.92462 18.3968 5.691 18.494 5.51863 18.6655C5.34713 18.8378 5.25 19.0715 5.25 19.3156C5.25 19.3392 5.25 19.3637 5.25 19.3873C5.25 19.6306 5.34713 19.8642 5.51863 20.0366C5.691 20.209 5.92462 20.3052 6.16787 20.3052C9.191 20.3052 18.809 20.3052 21.8321 20.3052C22.0754 20.3052 22.309 20.209 22.4814 20.0366C22.6529 19.8642 22.75 19.6306 22.75 19.3873C22.75 19.3637 22.75 19.3392 22.75 19.3156ZM22.75 13.9641C22.75 13.72 22.6529 13.4863 22.4814 13.3148C22.309 13.1425 22.0754 13.0453 21.8321 13.0453C18.809 13.0453 9.191 13.0453 6.16787 13.0453C5.92462 13.0453 5.691 13.1425 5.51863 13.3148C5.34713 13.4863 5.25 13.72 5.25 13.9641C5.25 13.9877 5.25 14.0122 5.25 14.0358C5.25 14.28 5.34713 14.5136 5.51863 14.6851C5.691 14.8575 5.92462 14.9546 6.16787 14.9546C9.191 14.9546 18.809 14.9546 21.8321 14.9546C22.0754 14.9546 22.309 14.8575 22.4814 14.6851C22.6529 14.5136 22.75 14.28 22.75 14.0358C22.75 14.0122 22.75 13.9877 22.75 13.9641ZM22.75 8.61258C22.75 8.36933 22.6529 8.1357 22.4814 7.96333C22.309 7.79095 22.0754 7.6947 21.8321 7.6947C18.809 7.6947 9.191 7.6947 6.16787 7.6947C5.92462 7.6947 5.691 7.79095 5.51863 7.96333C5.34713 8.1357 5.25 8.36933 5.25 8.61258C5.25 8.6362 5.25 8.6607 5.25 8.68433C5.25 8.92845 5.34713 9.16208 5.51863 9.33445C5.691 9.50595 5.92462 9.60308 6.16787 9.60308C9.191 9.60308 18.809 9.60308 21.8321 9.60308C22.0754 9.60308 22.309 9.50595 22.4814 9.33445C22.6529 9.16208 22.75 8.92845 22.75 8.68433C22.75 8.6607 22.75 8.6362 22.75 8.61258Z" fill="#797979"/>
</svg>
