<svg width="24" height="24" viewBox="0 0 24 24" fill="none" xmlns="http://www.w3.org/2000/svg">
<path d="M19.8732 3.97921C17.0089 3.7033 14.81 2.64411 13.1507 0.741033C12.5458 0.0479865 11.4555 0.0465333 10.8493 0.741033C9.18998 2.64411 6.99107 3.7033 4.12678 3.97921C3.3194 4.05721 2.71045 4.71885 2.71045 5.5183L2.7119 13.4618C3.10303 17.6968 5.84043 19.5797 8.25539 21.2408C9.23568 21.9152 10.162 22.5522 10.8857 23.3035C11.4975 23.9384 12.5026 23.9381 13.1148 23.3035C13.8381 22.5522 14.7644 21.9152 15.7447 21.2408C18.1597 19.5797 20.8971 17.6968 21.2896 13.428V5.5183C21.2895 4.7188 20.6806 4.05721 19.8732 3.97921ZM15.3277 20.6342C14.3154 21.3304 13.3595 21.9878 12.5845 22.7927C12.2732 23.1155 11.7264 23.1155 11.4158 22.7927C10.6404 21.9878 9.68461 21.3303 8.67234 20.6342C6.27932 18.988 3.80432 17.2857 3.44667 13.428V5.5183C3.44667 5.10003 3.7695 4.75335 4.19723 4.71219C7.25779 4.41725 9.61523 3.27664 11.4044 1.22492C11.7162 0.86708 12.2845 0.86783 12.5956 1.22492C14.3848 3.27664 16.7422 4.41725 19.8028 4.71219C20.2305 4.75335 20.5533 5.10008 20.5533 5.5183L20.5548 13.3942C20.1957 17.2857 17.7207 18.988 15.3277 20.6342Z" fill="#040405"/>
<path d="M12.0029 6.55371C8.99514 6.55371 6.54822 8.99529 6.54822 11.9962C6.54822 15.0437 9.01506 17.4447 12.0029 17.4447C15.0138 17.4447 17.4518 15.0139 17.4518 11.9962C17.4518 8.99529 15.0074 6.55371 12.0029 6.55371ZM9.41101 15.9342C9.96072 15.0031 10.9255 14.4321 12.0029 14.4321C13.0773 14.4321 14.0402 15.0034 14.5895 15.9351C13.8296 16.4407 12.9427 16.7085 12.0029 16.7085C11.0651 16.7085 10.1764 16.4407 9.41101 15.9342ZM15.1739 15.475C14.4848 14.3688 13.3095 13.696 12.0029 13.696C10.693 13.696 9.51564 14.3689 8.82615 15.4751C7.84398 14.5829 7.28439 13.3395 7.28439 11.9962C7.28439 9.40113 9.40098 7.28993 12.0029 7.28993C14.6015 7.28993 16.7156 9.40113 16.7156 11.9962C16.7156 13.3389 16.1565 14.5818 15.1739 15.475Z" fill="#FE9C2D"/>
<path d="M12.0001 9.28125C11.0223 9.28125 10.2268 10.0766 10.2268 11.0543C10.2268 12.0321 11.0223 12.8274 12.0001 12.8274C12.9779 12.8274 13.7734 12.0321 13.7734 11.0543C13.7734 10.0766 12.9779 9.28125 12.0001 9.28125ZM12.0001 12.0913C11.4282 12.0913 10.963 11.6261 10.963 11.0543C10.963 10.4826 11.4282 10.0174 12.0001 10.0174C12.572 10.0174 13.0372 10.4826 13.0372 11.0543C13.0372 11.6261 12.572 12.0913 12.0001 12.0913Z" fill="#FE9C2D"/>
</svg>
