<svg width="27" height="20" viewBox="0 0 27 20" fill="none" xmlns="http://www.w3.org/2000/svg">
<g clip-path="url(#clip0_5_72)">
<mask id="mask0_5_72" style="mask-type:luminance" maskUnits="userSpaceOnUse" x="0" y="0" width="28" height="20">
<path d="M0 0H27.0001V20H0V0Z" fill="white"/>
</mask>
<g mask="url(#mask0_5_72)">
<path fill-rule="evenodd" clip-rule="evenodd" d="M-1.6875 0H28.6875V20H-1.6875V0Z" fill="#199D00"/>
<path fill-rule="evenodd" clip-rule="evenodd" d="M5.96721 5.66916C5.93213 6.13638 5.89009 6.95865 6.29204 7.04298C6.77824 7.08916 6.51012 6.23025 6.68612 6.07451C6.71939 5.99756 6.78073 5.99716 6.78579 6.09423V6.82275C6.78136 7.0597 6.93905 7.12947 7.06154 7.17841C7.18905 7.16869 7.27417 7.17291 7.32412 7.29541L7.38392 8.5556C7.38392 8.5556 7.6796 8.6392 7.69368 7.84677C7.7078 7.38154 7.59955 6.99209 7.66303 6.90154C7.66524 6.81259 7.78026 6.80728 7.85999 6.85064C7.98711 6.93916 8.04371 7.04849 8.24122 7.00478C8.54173 6.92299 8.7224 6.77861 8.72683 6.55072C8.70927 6.33412 8.68467 6.11752 8.58966 5.90091C8.60291 5.8615 8.53164 5.75947 8.54485 5.72006C8.59888 5.80361 8.68107 5.79666 8.69973 5.72006C8.6486 5.55361 8.56922 5.39412 8.44056 5.32506C8.33425 5.23256 8.17861 5.25146 8.12162 5.44443C8.09524 5.66677 8.20278 5.93095 8.36672 6.14631C8.40152 6.23045 8.45045 6.37025 8.42893 6.49615C8.34172 6.54533 8.25447 6.52482 8.18138 6.44861C8.18138 6.44861 7.94218 6.27142 7.94218 6.23205C8.00566 5.83064 7.95626 5.78513 7.9211 5.67373C7.8965 5.51994 7.82262 5.47064 7.76278 5.3656C7.70294 5.30295 7.62198 5.30295 7.58329 5.3656C7.47754 5.54666 7.52686 5.93525 7.60323 6.10935C7.65844 6.26943 7.74276 6.3699 7.7029 6.3699C7.67011 6.46037 7.60228 6.43947 7.55292 6.33506C7.48244 6.11924 7.46832 5.7972 7.46832 5.65224C7.4472 5.47244 7.42394 5.08896 7.30415 4.99154C7.23106 4.89326 7.12273 4.94119 7.08488 5.03091C7.07701 5.20935 7.07617 5.38775 7.09654 5.5522C7.17869 5.8406 7.20452 6.09423 7.24438 6.38959C7.25546 6.78521 7.01277 6.56123 7.02385 6.36509C7.07981 6.11033 7.0653 5.70931 7.01554 5.60767C6.97615 5.50603 6.9296 5.48095 6.83373 5.49767C6.75759 5.4931 6.5617 5.70435 6.50668 6.05478C6.50668 6.05478 6.45978 6.23517 6.4398 6.39533C6.41291 6.57631 6.29228 6.70404 6.20764 6.36986C6.13455 6.12701 6.08962 5.52908 5.96717 5.66912L5.96721 5.66916Z" fill="#F5EDE5"/>
<path fill-rule="evenodd" clip-rule="evenodd" d="M7.28836 7.58632C6.85931 7.79347 6.44439 7.98671 6.02234 8.18691C6.03776 7.90347 6.62426 7.39183 7.0242 7.38464C7.28452 7.39183 7.21911 7.48421 7.28836 7.58632Z" fill="#F5EDE5"/>
<path fill-rule="evenodd" clip-rule="evenodd" d="M7.06718 7.9781C6.39996 9.67681 8.62963 9.91349 8.8788 8.04767C8.90226 7.97111 8.99627 7.89455 9.01272 8.01982C8.96103 9.70919 7.28807 9.82529 7.00378 9.2938C6.93334 9.16853 6.91214 8.89005 6.9051 8.72294C6.86278 8.39115 6.68662 8.51876 6.65842 8.84826C6.63018 9.03158 6.63726 9.08271 6.63726 9.25904C6.72653 10.5934 8.88122 10.0202 9.23128 8.9179C9.41689 8.30755 9.20071 7.8574 9.30172 7.8597C9.51557 8.08712 9.8139 7.88986 9.87972 7.81095C9.90796 7.7715 9.97847 7.74603 10.0278 7.79705C10.1946 7.91548 10.4884 7.85966 10.5494 7.65083C10.5847 7.44662 10.6129 7.23544 10.6199 7.01736C10.4836 7.05915 10.3826 7.08693 10.3732 7.14267L10.345 7.32365C10.3333 7.38169 10.2157 7.38396 10.2111 7.3097C10.1594 7.07763 9.94561 7.04748 9.81636 7.4072C9.72938 7.47681 9.57201 7.49076 9.55552 7.38634C9.57664 7.14498 9.47796 7.11248 9.28064 7.22619C9.21716 6.74814 9.15376 6.29103 9.09028 5.81294C9.17255 5.8106 9.24777 5.87091 9.323 5.7781C9.24065 5.52521 9.06683 5.00767 8.97044 4.97052C8.92346 4.91486 8.88343 4.94966 8.82244 4.96357C8.71906 4.99607 8.62271 5.08427 8.65321 5.25599C8.77542 5.98927 8.85531 6.54857 8.97752 7.28189C8.99627 7.36775 8.92346 7.48138 8.82948 7.46978C8.6697 7.36306 8.62987 7.14728 8.35725 7.1565C8.15985 7.15884 7.93421 7.37001 7.90609 7.57431C7.87319 7.73665 7.8614 7.91298 7.90601 8.05462C8.04472 8.21935 8.21154 8.20318 8.35721 8.16603C8.47705 8.11732 8.57569 7.99896 8.61801 8.02677C8.64625 8.06162 8.62501 8.45138 8.05405 8.7508C7.70869 8.90392 7.43374 8.9388 7.28578 8.66029C7.19414 8.48622 7.29282 7.82486 7.06718 7.97806V7.9781Z" fill="#F5EDE5"/>
<path fill-rule="evenodd" clip-rule="evenodd" d="M9.89774 6.25126C10.0317 6.20251 10.6662 5.48548 10.6662 5.48548C10.6332 5.45763 10.6038 5.43673 10.5709 5.40888C10.5357 5.37872 10.5392 5.34856 10.5709 5.31837C10.7283 5.2279 10.6778 5.02946 10.5956 4.93899C10.4593 4.8786 10.3407 4.89837 10.2537 4.94243C10.1433 5.04688 10.1175 5.21392 10.2045 5.31837C10.2891 5.35782 10.3736 5.44255 10.3172 5.48895C10.0576 5.76278 9.3468 6.23505 9.42906 6.25126C9.44663 6.27446 9.8837 6.27329 9.89774 6.25126ZM6.0663 8.78915C5.82836 9.16353 5.80764 9.72286 5.93895 9.88962C6.00871 9.96841 6.12333 10.0029 6.20813 9.97825C6.35763 9.91419 6.42305 9.61505 6.38757 9.5056C6.33766 9.42849 6.29838 9.41626 6.24855 9.48188C6.14334 9.69282 6.09968 9.5481 6.09046 9.4302C6.07433 9.20665 6.09565 9.00075 6.12021 8.8377C6.14639 8.6706 6.11981 8.72169 6.0663 8.78915ZM16.2342 8.18954C16.0041 7.70044 15.6856 7.21712 15.5843 7.03146C15.4829 6.84571 14.7179 5.74915 14.6053 5.62583C14.3568 5.33415 15.0089 5.74731 14.5228 5.16817C14.3375 5.01114 14.3267 5.00157 14.1729 4.87345C14.0953 4.81907 13.9059 4.71974 13.8723 4.88438C13.8554 5.02958 13.8645 5.10829 13.8892 5.22919C13.9082 5.30978 14.027 5.44474 14.0855 5.52294C14.8617 6.55341 15.5499 7.59403 16.2136 8.90243C16.3185 8.85321 16.2955 8.27138 16.2342 8.18954H16.2342Z" fill="#F5EDE5"/>
<path fill-rule="evenodd" clip-rule="evenodd" d="M15.224 9.8258C15.1788 9.87596 15.3357 10.0905 15.5396 10.0903C15.8807 10.0512 16.1809 9.86198 16.4589 9.36389C16.5333 9.24772 16.664 8.99928 16.6678 8.80658C16.6938 7.6767 16.6105 6.79748 16.4391 5.9808C16.4281 5.90127 16.4348 5.80776 16.4485 5.78393C16.4706 5.75787 16.5454 5.78405 16.5852 5.71971C16.6435 5.66092 16.4304 5.17401 16.3089 4.98647C16.2658 4.90272 16.2508 4.84678 16.1793 4.99631C16.1042 5.1178 16.0538 5.32983 16.0597 5.52795C16.2224 6.64057 16.2724 7.61385 16.3787 8.72647C16.3874 8.83405 16.3713 8.99041 16.2989 9.05276C16.0311 9.32901 15.6444 9.66905 15.224 9.8258ZM19.8313 9.81994C19.5865 9.95967 19.5862 10.1204 19.7841 10.1262C20.1252 10.0871 20.5282 10.0592 20.8061 9.64463C20.8805 9.52846 20.9689 9.21436 20.9727 9.02166C20.9987 7.89178 20.9578 7.04842 20.7864 6.23182C20.7754 6.15225 20.7398 5.96916 20.7534 5.9453C20.7755 5.88936 20.8867 5.95139 20.9264 5.88702C20.9847 5.82827 20.6386 5.38909 20.5171 5.20155C20.4739 5.11784 20.4589 5.0619 20.3875 5.21139C20.3124 5.33291 20.2862 5.55092 20.3162 5.74307C20.4971 6.95119 20.6317 7.85881 20.6595 8.92959C20.6439 9.03123 20.64 9.08604 20.5918 9.21409C20.485 9.34924 20.3668 9.51819 20.2559 9.59987C20.145 9.68151 19.9084 9.75948 19.8313 9.81998V9.81994Z" fill="#F5EDE5"/>
<path fill-rule="evenodd" clip-rule="evenodd" d="M20.0145 8.73673C20.0117 8.45419 20.0185 8.2102 20.0091 7.9995C19.9997 7.78876 19.962 7.61716 19.8882 7.46759C19.8183 7.3072 19.8617 7.17833 19.8289 7.00747C19.7961 6.83669 19.8041 6.58091 19.7546 6.37825C19.741 6.29911 19.6994 6.04563 19.7123 6.02134C19.7324 5.96477 19.8094 6.02309 19.847 5.95755C19.9033 5.89692 19.6517 5.25411 19.5241 5.07056C19.4782 4.98825 19.3949 5.01645 19.2922 5.15024C19.1969 5.23833 19.2322 5.43915 19.2686 5.63016C19.5134 6.89153 19.6959 8.03321 19.6561 9.23395C19.6438 9.33606 20.017 8.92946 20.0145 8.73673ZM18.2062 7.17227C18.0523 7.1695 17.7299 6.87641 17.6358 6.7047C17.6002 6.60622 17.6231 6.51013 17.6544 6.45384C17.7114 6.41724 17.7991 6.3761 17.8646 6.41556C17.8646 6.41556 17.9326 6.50946 17.9195 6.52141C18.0035 6.56118 18.0392 6.53829 18.0477 6.50454C18.0535 6.4454 18.0229 6.41016 18.0225 6.34505C18.0582 6.16849 18.2625 6.14102 18.3395 6.25364C18.3958 6.32227 18.4165 6.46817 18.425 6.56665C18.4241 6.61696 18.3416 6.55794 18.2948 6.57005C18.2479 6.58216 18.2366 6.63559 18.2329 6.68391C18.2244 6.81196 18.2091 7.01743 18.2062 7.17223V7.17227ZM15.3653 9.05001C15.4077 8.6661 15.3497 7.98239 15.3458 7.75587C15.3302 7.22071 15.2417 6.18704 15.1996 6.01434C15.1521 5.68884 15.3351 6.05005 15.3098 5.86083C15.2505 5.53579 15.0679 5.31544 14.8533 5.0177C14.7841 4.92083 14.7864 4.9011 14.6796 5.04145C14.5614 5.3063 14.6634 5.48852 14.694 5.69481C14.8487 6.36692 14.939 6.98532 14.9811 7.59665C15.0231 8.20798 15.0361 8.86899 14.9976 9.51286C15.1136 9.51735 15.3001 9.32759 15.3653 9.05001Z" fill="#F5EDE5"/>
<path fill-rule="evenodd" clip-rule="evenodd" d="M20.5389 8.43514C20.2674 7.98534 19.8578 7.49815 19.7484 7.31702C19.639 7.13584 18.7135 5.95647 18.5956 5.83811C18.257 5.48682 18.7508 5.78092 18.5307 5.5096C18.3446 5.30772 18.2903 5.24436 18.131 5.12295C18.0511 5.07198 18.0027 4.9746 17.9764 5.14053C17.966 5.28631 17.955 5.45499 17.965 5.57784C17.9644 5.64616 18.0364 5.77448 18.0983 5.8501C18.9191 6.8462 19.8145 7.86327 20.5353 9.1419C20.6378 9.08819 20.6037 8.51428 20.5389 8.43514Z" fill="#F5EDE5"/>
<path fill-rule="evenodd" clip-rule="evenodd" d="M8.22351 7.60506C8.20397 7.63889 8.16046 7.68272 8.17506 7.72807C8.20551 7.76885 8.22988 7.77713 8.28066 7.77936C8.32472 7.77936 8.38626 7.78963 8.39951 7.76397C8.42324 7.73819 8.44123 7.68549 8.4215 7.63581C8.37562 7.52253 8.24748 7.56471 8.22351 7.60506Z" fill="#1BA400"/>
<path fill-rule="evenodd" clip-rule="evenodd" d="M17.3827 14.1617C17.7457 14.1749 17.9832 14.1781 18.3061 14.216C18.3061 14.216 18.5845 14.1889 18.6839 14.1741C19.1042 14.1344 19.1228 14.7669 19.1228 14.7669C19.1182 15.1378 18.9732 15.1572 18.7882 15.1964C18.6825 15.2096 18.6269 15.1338 18.5713 15.0531C18.5016 15.0819 18.4068 15.086 18.2919 15.0703C18.1407 15.0609 17.9894 15.0616 17.8381 15.0522C17.6774 15.0382 17.592 15.0687 17.4312 15.0548C17.3981 15.1061 17.3551 15.1773 17.2568 15.1544C17.175 15.1454 17.0782 14.9187 17.1067 14.7463C17.1657 14.6227 17.1495 14.6625 17.1433 14.6082C15.6592 14.5708 14.1608 14.5055 12.705 14.5242C11.5659 14.5288 10.4409 14.5755 9.31597 14.6222C8.71571 14.6128 8.25723 14.5195 7.94055 14.062C7.96891 14.062 9.47196 14.146 9.91157 14.118C10.7245 14.1086 11.4666 14.0433 12.2937 14.0199C13.9244 14.048 15.541 14.048 17.1715 14.16C17.0156 14.0546 17.01 13.8057 17.2501 13.7448C17.2705 13.7309 17.281 13.8686 17.3169 13.866C17.509 13.8518 17.4248 14.1087 17.3825 14.1617L17.3827 14.1617ZM10.8358 5.2844C10.5887 5.98202 10.9774 6.74511 11.2469 6.67081C11.4413 6.7503 11.5651 6.38499 11.6448 5.98475C11.6992 5.87241 11.7404 5.86046 11.7683 5.91819C11.7612 6.45042 11.807 6.56831 11.9456 6.72987C12.2546 6.96538 12.5103 6.75995 12.5303 6.74011L12.771 6.50245C12.8245 6.44679 12.8958 6.44354 12.9715 6.49257C13.045 6.55858 13.0347 6.67257 13.1921 6.75163C13.3246 6.80397 13.6077 6.76374 13.6734 6.651C13.7617 6.50155 13.7829 6.45022 13.8238 6.39354C13.8868 6.31069 13.9942 6.34753 13.9942 6.3737C13.9842 6.41991 13.9211 6.46616 13.9642 6.54936C14.0391 6.60487 14.0564 6.56917 14.1007 6.55682C14.2575 6.4828 14.3752 6.14596 14.3752 6.14596C14.3822 6.02065 14.3111 6.031 14.265 6.05682C14.2048 6.09315 14.2009 6.10475 14.1407 6.14108C14.064 6.15233 13.9153 6.20253 13.8418 6.09011C13.7667 5.95491 13.7657 5.76628 13.7083 5.62995C13.7083 5.62003 13.6087 5.41518 13.7014 5.40206C13.7482 5.41065 13.848 5.43675 13.8639 5.35374C13.913 5.2728 13.7588 5.04366 13.6533 4.92792C13.5618 4.82862 13.4349 4.81667 13.3124 4.91803C13.2267 4.99596 13.239 5.08304 13.2222 5.16557C13.2003 5.26034 13.205 5.37694 13.3024 5.50229C13.388 5.66897 13.5442 5.88366 13.4929 6.18553C13.4929 6.18553 13.4017 6.32823 13.2427 6.30956C13.1764 6.2953 13.069 6.26753 13.0116 5.84886C12.9682 5.53198 13.0219 5.08858 12.8857 4.88073C12.8365 4.75522 12.8006 4.63401 12.6807 4.8487C12.6485 4.933 12.5103 5.06093 12.6105 5.32405C12.6926 5.49085 12.726 5.76233 12.6887 6.06444C12.6319 6.15026 12.6193 6.17932 12.5448 6.26518C12.4401 6.37632 12.3265 6.34796 12.2396 6.30643C12.1583 6.25233 12.0946 6.22436 12.0576 6.05249C12.0643 5.77854 12.0797 5.33007 12.029 5.23495C11.9542 5.08761 11.831 5.14089 11.7783 5.18542C11.5253 5.41389 11.4003 5.7994 11.3239 6.10639C11.2538 6.33011 11.1791 6.266 11.1266 6.17573C10.9988 6.05745 10.9901 5.13237 10.8358 5.28448V5.2844Z" fill="#F5EDE5"/>
<path fill-rule="evenodd" clip-rule="evenodd" d="M11.5798 6.8008C11.692 6.72228 11.6396 6.66744 11.8074 6.83314C12.0175 7.18791 12.1526 7.6474 12.1728 8.05447C12.164 8.15478 12.2355 8.21826 12.2683 8.19646C12.2877 7.96095 12.8676 7.63283 13.3993 7.58486C13.4806 7.5674 13.441 7.41349 13.4543 7.33502C13.4224 7.04349 13.6202 6.77806 13.8973 6.75689C14.2746 6.81197 14.4002 7.01088 14.4065 7.31451C14.3658 7.8974 13.751 7.99623 13.4055 8.04271C13.3525 8.06252 13.3305 8.08666 13.4055 8.11521L14.8529 8.1217L14.9267 8.16381C14.9356 8.19791 14.9057 8.16947 14.8485 8.2624C14.7914 8.35533 14.7071 8.56963 14.7028 8.71271C14.2715 8.84966 13.8255 8.90966 13.3722 8.96381C13.2147 9.04248 13.1366 9.14728 13.169 9.26525C13.222 9.39611 13.5708 9.52681 13.5708 9.53302C13.6371 9.57404 13.7154 9.66982 13.5521 9.86603C12.8461 9.83537 12.299 9.53861 12.1096 9.11978C12.0525 9.07607 11.991 9.11955 11.9516 9.17615C11.676 9.52709 11.4048 9.8431 10.9349 10.0109C10.6546 10.08 10.3678 9.96841 10.2323 9.78716C10.1416 9.684 10.145 9.57009 10.1117 9.54541C9.96022 9.61158 8.65682 10.1586 8.82203 9.90377C9.13923 9.56841 9.68843 9.32213 10.1734 8.99115C10.2084 8.88025 10.2721 8.50513 10.4636 8.38295C10.4747 8.38384 10.4333 8.60326 10.4374 8.69576C10.4396 8.7717 10.4318 8.80146 10.4486 8.78193C10.4813 8.76131 11.0699 8.30459 11.1153 8.16455C11.1727 8.08423 11.1325 7.88084 11.1325 7.87466C11.0222 7.59373 10.8674 7.56986 10.81 7.43029C10.7583 7.24486 10.7817 7.03322 10.889 6.97423C10.9843 6.8888 11.0971 6.89935 11.2012 6.99271C11.3201 7.09787 11.4257 7.30338 11.4562 7.45646C11.4358 7.51701 11.3007 7.41623 11.2538 7.44631C11.3368 7.53115 11.3755 7.62904 11.4055 7.74881C11.4821 8.06947 11.4588 8.19412 11.3816 8.40146C11.1203 8.94404 10.7864 9.10595 10.4942 9.30697C10.4864 9.3097 10.4813 9.44466 10.5911 9.51763C10.629 9.55693 10.7814 9.57709 10.9606 9.52037C11.3069 9.33388 11.6663 8.99033 11.8448 8.60759C11.8966 8.3181 11.8248 8.01111 11.7485 7.74338C11.6337 7.48173 11.4985 7.10814 11.4985 7.10197C11.494 6.9388 11.5074 6.8822 11.5799 6.8008H11.5798ZM7.79046 5.29181C7.95705 5.37029 8.27026 5.33689 8.25701 5.07158C8.25701 5.04814 8.25095 4.96877 8.24858 4.94724C8.21457 4.86904 8.12182 4.88837 8.10078 4.96912C8.09418 4.99556 8.11257 5.03865 8.08832 5.05193C8.0744 5.0658 8.02116 5.05763 8.02338 4.98435C8.02338 4.96099 8.00598 4.93591 7.99546 4.92107C7.98494 4.91427 7.97825 4.9124 7.95919 4.9124C7.93593 4.9133 7.93633 4.91927 7.92359 4.93857C7.91817 4.95818 7.91074 4.97736 7.91074 4.99962C7.90781 5.02572 7.89785 5.03502 7.87843 5.03888C7.85671 5.03888 7.86162 5.04123 7.84402 5.03017C7.83358 5.01884 7.82052 5.01455 7.82052 4.99529C7.82052 4.97533 7.81594 4.94302 7.80984 4.92986C7.80063 4.91783 7.7858 4.91228 7.76911 4.90802C7.67814 4.90834 7.67181 5.01084 7.67707 5.04974C7.67023 5.05709 7.66639 5.24095 7.79046 5.29181Z" fill="#F5EDE5"/>
<path fill-rule="evenodd" clip-rule="evenodd" d="M12.6735 7.33318C12.8401 7.41166 13.2366 7.3665 13.1401 7.11295C13.1401 7.08951 13.134 7.0101 13.1316 6.98861C13.0976 6.91041 13.0049 6.92974 12.9838 7.01049C12.9772 7.03693 12.9956 7.08002 12.9714 7.0933C12.9575 7.10717 12.9042 7.099 12.9064 7.02572C12.9064 7.00236 12.889 6.97728 12.8785 6.96244C12.868 6.95564 12.8613 6.95377 12.8422 6.95377C12.819 6.95467 12.8194 6.96064 12.8066 6.97994C12.8012 6.99955 12.7938 7.01873 12.7938 7.04099C12.7909 7.06709 12.7809 7.07639 12.7615 7.08025C12.7398 7.08025 12.7447 7.0826 12.7271 7.07154C12.7166 7.06021 12.7036 7.05592 12.7036 7.03666C12.7036 7.0167 12.699 6.98439 12.6929 6.97123C12.6837 6.9592 12.6689 6.95365 12.6522 6.94939C12.5612 6.94971 12.5549 7.05221 12.5601 7.09111C12.5533 7.09846 12.5495 7.28232 12.6735 7.33318ZM15.5212 6.48826C15.6878 6.56674 16.001 6.53334 15.9877 6.26803C15.9877 6.24459 15.9817 6.16521 15.9793 6.14369C15.9453 6.06549 15.8525 6.08482 15.8315 6.16557C15.8249 6.19201 15.8433 6.2351 15.819 6.24838C15.8051 6.26224 15.7519 6.25408 15.7541 6.1808C15.7541 6.15744 15.7367 6.13236 15.7262 6.11752C15.7156 6.11072 15.709 6.10885 15.6899 6.10885C15.6666 6.10974 15.667 6.11572 15.6543 6.13502C15.6489 6.15463 15.6414 6.17381 15.6414 6.19607C15.6385 6.22217 15.6286 6.23146 15.6091 6.23533C15.5874 6.23533 15.5923 6.23767 15.5747 6.22662C15.5643 6.21529 15.5512 6.21099 15.5512 6.19174C15.5512 6.17178 15.5466 6.13947 15.5406 6.12631C15.5313 6.11428 15.5165 6.10873 15.4998 6.10447C15.4089 6.10478 15.4025 6.20728 15.4078 6.24619C15.4009 6.25353 15.3971 6.4374 15.5212 6.48826ZM16.996 8.61053C16.7057 8.93369 16.8337 9.46814 16.8993 9.5833C16.995 9.77244 17.0721 9.89373 17.2583 9.98728C17.428 10.1106 17.5602 10.0335 17.633 9.94717C17.8038 9.77244 17.8058 9.32631 17.8859 9.23791C17.9422 9.07553 18.0837 9.10326 18.1524 9.17521C18.2189 9.26974 18.2974 9.33068 18.3952 9.38217C18.5544 9.52092 18.7446 9.54623 18.9319 9.41982C19.0599 9.34888 19.1431 9.25724 19.2181 9.07533C19.3014 8.85541 19.2549 7.83908 19.2383 7.23674C19.2319 7.18947 19.0728 6.40842 19.0728 6.39971C19.0728 6.39096 19.0518 6.00107 19.0343 5.90818C19.0312 5.87049 19.0217 5.85967 19.0617 5.86443C19.1042 5.89971 19.11 5.90193 19.1365 5.91353C19.1793 5.92127 19.2176 5.84928 19.1918 5.78307L18.7944 5.05912C18.7624 5.0281 18.7213 4.99404 18.6707 5.06787C18.6224 5.10971 18.5709 5.18545 18.5725 5.28283C18.5842 5.45439 18.6148 5.62892 18.6265 5.80053L18.7855 6.68146C18.8356 7.30943 18.8481 7.82338 18.8981 8.45135C18.8911 8.71724 18.8075 8.94908 18.7289 8.98252C18.7289 8.98252 18.6095 9.05088 18.5294 8.97537C18.4712 8.95228 18.238 8.59158 18.238 8.59158C18.1188 8.48365 18.0402 8.51451 17.9554 8.59158C17.7215 8.81467 17.6156 9.23197 17.4567 9.51982C17.4157 9.58408 17.2999 9.63904 17.1715 9.51513C16.8455 9.07537 17.0366 8.44963 16.996 8.61053ZM15.5959 4.94803C15.7452 5.00974 15.8504 5.3083 15.8161 5.45408C15.7864 5.63443 15.7073 5.8292 15.6504 5.80385C15.5885 5.78119 15.6925 5.62455 15.6331 5.46025C15.6 5.3533 15.3964 5.15787 15.4178 5.10025C15.3758 4.97955 15.5044 4.92674 15.5959 4.94803Z" fill="#F5EDE5"/>
<path fill-rule="evenodd" clip-rule="evenodd" d="M17.4764 8.78756C17.5078 8.42901 17.4548 8.21038 17.4454 7.99963C17.436 7.78889 17.2041 6.18092 17.157 6.02147C17.1003 5.71999 17.3825 5.98104 17.3516 5.80569C17.254 5.58459 17.0111 5.26272 16.9348 5.07069C16.8889 4.98842 16.9082 4.91522 16.8054 5.04905C16.7101 5.3567 16.6771 5.60819 16.7134 5.79924C16.9581 7.06057 17.2091 8.1094 17.1693 9.31014C17.2854 9.31092 17.4191 9.04784 17.4764 8.78756ZM20.0263 5.45631C20.1623 5.52311 20.242 5.89729 20.227 6.0042C20.1999 6.19948 20.1277 6.41034 20.0759 6.38288C20.0195 6.35834 20.0872 6.09331 20.0601 6.01088C20.03 5.8951 19.8444 5.68354 19.8639 5.62116C19.8255 5.49049 19.9428 5.43331 20.0263 5.45631ZM9.91431 8.10944C10.0444 8.1585 10.1208 8.43346 10.1064 8.51206C10.0804 8.65549 10.0113 8.81045 9.96177 8.7903C9.90782 8.77225 9.97261 8.57749 9.9467 8.51694C9.93571 8.37006 9.75508 8.29401 9.75884 8.23057C9.72514 8.11393 9.83442 8.09245 9.91431 8.10944Z" fill="#F5EDE5"/>
<path fill-rule="evenodd" clip-rule="evenodd" d="M13.0594 8.52228C13.2274 8.53283 13.3113 8.66298 13.1539 8.71759C12.9987 8.77005 12.8496 8.81107 12.8489 9.03259C12.9063 9.34126 12.7702 9.23533 12.6889 9.19341C12.5933 9.12556 12.3248 8.96216 12.2865 8.60943C12.2807 8.52525 12.3472 8.45439 12.4542 8.4549C12.6153 8.49814 12.8531 8.5013 13.0593 8.52228H13.0594Z" fill="#1B9D00"/>
<path fill-rule="evenodd" clip-rule="evenodd" d="M6.43647 4.85878C6.62849 4.91597 6.63984 5.19472 6.62568 5.27621C6.60009 5.42496 6.53206 5.58558 6.48322 5.56464C6.43006 5.54597 6.48112 5.34406 6.45561 5.28124C6.42714 5.19304 6.2649 5.03187 6.28329 4.98437C6.24718 4.8848 6.35776 4.84121 6.43647 4.85878ZM10.2286 6.17285C10.0813 6.25156 10.0242 6.48613 10.1159 6.62277C10.2016 6.74308 10.3369 6.69847 10.3549 6.69847C10.4993 6.71632 10.5849 6.43121 10.5849 6.43121C10.5849 6.43121 10.5895 6.35105 10.418 6.50253C10.3459 6.51589 10.3369 6.48914 10.3189 6.44902C10.3038 6.3748 10.3068 6.30058 10.3414 6.22632C10.3669 6.15507 10.3113 6.12386 10.2286 6.17285ZM11.3337 4.75097C11.2596 4.79999 11.1123 4.95078 11.1078 5.12453C11.1033 5.22253 11.0848 5.22222 11.1498 5.2846C11.1967 5.35148 11.2441 5.34546 11.3388 5.29644C11.3933 5.25683 11.4116 5.23054 11.43 5.16414C11.4525 5.05281 11.3108 5.21695 11.2928 5.09304C11.2612 4.97796 11.3522 4.93085 11.4379 4.81953C11.4408 4.74324 11.4391 4.68921 11.3337 4.75097ZM12.224 4.90722C12.1921 4.97683 12.1538 5.34054 12.1602 5.34054C12.1347 5.4489 12.275 5.49527 12.3388 5.35597C12.4345 5.10062 12.4345 4.9923 12.4408 4.88394C12.4111 4.71894 12.2984 4.7241 12.224 4.90722ZM17.837 7.72832C17.8562 7.70941 18.628 7.16765 18.628 7.16765C18.7066 7.14035 18.6896 7.44695 18.6535 7.44484C18.6683 7.5057 17.8923 8.02648 17.837 8.0055C17.7987 8.03281 17.7605 7.79554 17.837 7.72832H17.837ZM18.5406 7.72363C18.6767 7.79042 18.7309 8.18351 18.7158 8.29042C18.7207 8.49832 18.5847 8.66503 18.5328 8.63761C18.4764 8.61308 18.5378 8.37953 18.5107 8.2971C18.4806 8.18132 18.3651 7.96343 18.3846 7.90105C18.3463 7.77039 18.4572 7.70062 18.5406 7.72363ZM13.95 9.4166C14.0036 9.3391 14.1695 9.22757 14.1732 9.22757C14.2497 9.18976 14.3245 9.25722 14.32 9.25277C14.3327 9.32839 14.2715 9.39874 14.2907 9.49957C14.3074 9.54019 14.3197 9.58531 14.395 9.56812C14.5176 9.47289 14.6312 9.46675 14.7537 9.4607C14.8476 9.46628 14.8513 9.62331 14.7919 9.62449C14.5657 9.67304 14.4643 9.73289 14.3027 9.79378C14.2261 9.83789 14.1605 9.78195 14.1605 9.77566C14.1605 9.76937 14.1157 9.73277 14.1469 9.63261C14.1525 9.5523 14.1198 9.50828 14.052 9.51738C14.001 9.54464 13.9561 9.56269 13.9306 9.50476C13.9205 9.46199 13.9172 9.44117 13.95 9.4166ZM19.3526 9.62832C19.3857 9.66988 19.4071 9.70835 19.35 9.77664C19.2958 9.82562 19.2577 9.85261 19.2036 9.9016C19.178 9.94464 19.1617 10.01 19.2399 10.0308C19.3842 10.0709 19.7179 9.85703 19.7179 9.85257C19.7721 9.8125 19.7541 9.73675 19.7495 9.73675C19.7179 9.70113 19.6468 9.7223 19.599 9.71652C19.5762 9.71652 19.5015 9.70535 19.5371 9.64003C19.5667 9.59941 19.5774 9.57453 19.5975 9.52445C19.6201 9.47546 19.6007 9.44281 19.5195 9.41605C19.4368 9.40121 19.4037 9.40863 19.312 9.41605C19.2624 9.42644 19.2455 9.44835 19.2365 9.50773C19.24 9.59781 19.2955 9.59269 19.3526 9.62832Z" fill="#F5EDE5"/>
<path fill-rule="evenodd" clip-rule="evenodd" d="M13.9793 7.41183C13.9581 7.44796 13.8865 7.44621 13.8195 7.40792C13.7524 7.36964 13.7151 7.30921 13.7363 7.27304C13.7575 7.23687 13.829 7.23867 13.8961 7.27703C13.9632 7.31539 14.0004 7.3757 13.9793 7.41183ZM10.4564 5.31832C10.4163 5.328 10.3639 5.29269 10.3393 5.23945C10.3148 5.18621 10.3274 5.13519 10.3675 5.1255C10.4075 5.11581 10.46 5.15109 10.4845 5.20433C10.5091 5.25757 10.4965 5.30863 10.4564 5.31832Z" fill="#259F00"/>
<path fill-rule="evenodd" clip-rule="evenodd" d="M17.425 14.6473C17.7948 14.6651 18.1423 14.6514 18.5122 14.6693C18.5792 14.7255 18.5313 14.8636 18.4867 14.8537C18.3664 14.8507 18.2971 14.8478 18.1769 14.8448C18.1728 14.7284 17.8721 14.7475 17.8808 14.8485C17.7184 14.8678 17.572 14.8429 17.4096 14.837C17.3616 14.778 17.3678 14.6717 17.425 14.6473H17.425Z" fill="#209000"/>
</g>
</g>
<defs>
<clipPath id="clip0_5_72">
<rect width="27" height="20" rx="2" fill="white"/>
</clipPath>
</defs>
</svg>
