<svg width="24" height="24" viewBox="0 0 24 24" fill="none" xmlns="http://www.w3.org/2000/svg">
<path d="M12.0004 21.5999C10.1017 21.5999 8.24563 21.0369 6.66692 19.982C5.08821 18.9272 3.85775 17.4278 3.13115 15.6737C2.40455 13.9195 2.21444 11.9893 2.58486 10.127C2.95527 8.26482 3.86959 6.55427 5.21217 5.21168C6.55475 3.8691 8.26531 2.95479 10.1275 2.58437C11.9897 2.21395 13.92 2.40406 15.6742 3.13066C17.4283 3.85726 18.9276 5.08772 19.9825 6.66643C21.0374 8.24514 21.6004 10.1012 21.6004 11.9999C21.6004 14.546 20.589 16.9878 18.7886 18.7881C16.9883 20.5885 14.5465 21.5999 12.0004 21.5999ZM12.0004 3.99991C10.4181 3.99991 8.87143 4.4691 7.55583 5.34815C6.24024 6.2272 5.21486 7.47663 4.60936 8.93844C4.00386 10.4002 3.84543 12.0088 4.15411 13.5606C4.46279 15.1125 5.22472 16.5379 6.34354 17.6568C7.46236 18.7756 8.88783 19.5375 10.4397 19.8462C11.9915 20.1549 13.6001 19.9964 15.0619 19.3909C16.5237 18.7854 17.7731 17.7601 18.6522 16.4445C19.5312 15.1289 20.0004 13.5822 20.0004 11.9999C20.0004 9.87818 19.1575 7.84334 17.6572 6.34305C16.157 4.84276 14.1221 3.99991 12.0004 3.99991Z" fill="black"/>
<path d="M16 16.4C15.8017 16.3994 15.6107 16.3253 15.464 16.192L11.464 12.592C11.3811 12.5172 11.3148 12.4258 11.2693 12.3239C11.2238 12.2219 11.2002 12.1116 11.2 12V7.99995C11.2 7.78778 11.2842 7.58429 11.4343 7.43427C11.5843 7.28424 11.7878 7.19995 12 7.19995C12.2121 7.19995 12.4156 7.28424 12.5656 7.43427C12.7157 7.58429 12.8 7.78778 12.8 7.99995V11.64L16.536 15C16.6583 15.1078 16.7447 15.2505 16.7837 15.4089C16.8226 15.5672 16.8123 15.7337 16.754 15.886C16.6956 16.0383 16.5922 16.1692 16.4574 16.261C16.3226 16.3529 16.163 16.4014 16 16.4Z" fill="black"/>
</svg>
