<svg width="27" height="20" viewBox="0 0 27 20" fill="none" xmlns="http://www.w3.org/2000/svg">
<g clip-path="url(#clip0_5_60)">
<path fill-rule="evenodd" clip-rule="evenodd" d="M0 0H26.8312V1.53846H0V0ZM0 3.07696H26.8312V4.61542H0V3.07696ZM0 6.15392H26.8312V7.69238H0V6.15392ZM0 9.23088H26.8312V10.7693H0V9.23088ZM0 12.3078H26.8312V13.8463H0V12.3078ZM0 15.3848H26.8312V16.9233H0V15.3848ZM0 18.4617H26.8312V20.0002H0V18.4617Z" fill="#BD3D44"/>
<path fill-rule="evenodd" clip-rule="evenodd" d="M0 1.53845H26.8312V3.07695H0V1.53845ZM0 4.61541H26.8312V6.15391H0V4.61541ZM0 7.69237H26.8312V9.23087H0V7.69237ZM0 10.7693H26.8312V12.3078H0V10.7693ZM0 13.8463H26.8312V15.3847H0V13.8463ZM0 16.9232H26.8312V18.4617H0V16.9232Z" fill="#F5EDE5"/>
<path fill-rule="evenodd" clip-rule="evenodd" d="M0 0H10.7324V10.7692H0V0Z" fill="#192F5D"/>
<path fill-rule="evenodd" clip-rule="evenodd" d="M0.893991 0.460999L0.991665 0.886582H1.30763L1.05198 1.14971L1.14965 1.57533L0.893991 1.31225L0.638332 1.57533L0.736006 1.14971L0.480347 0.886582H0.796316L0.893991 0.460999ZM2.68272 0.460999L2.78039 0.886582H3.09642L2.84074 1.14971L2.93841 1.57533L2.68272 1.31225L2.42709 1.57533L2.52474 1.14971L2.26908 0.886582H2.58508L2.68272 0.460999ZM4.47151 0.460999L4.56918 0.886582H4.88518L4.62952 1.14971L4.7272 1.57533L4.47154 1.31225L4.21588 1.57533L4.31353 1.14971L4.05787 0.886582H4.37389L4.47151 0.460999ZM6.26024 0.460999L6.35786 0.886582H6.67383L6.4182 1.14971L6.51584 1.57533L6.26021 1.31225L6.00455 1.57533L6.10223 1.14971L5.84654 0.886582H6.16257L6.26024 0.460999ZM8.04897 0.460999L8.14664 0.886582H8.46264L8.20698 1.14971L8.30466 1.57533L8.04897 1.31225L7.79334 1.57533L7.89099 1.14971L7.63533 0.886582H7.95133L8.04897 0.460999ZM9.83776 0.460999L9.93543 0.886582H10.2514L9.99577 1.14971L10.0934 1.57533L9.83779 1.31225L9.5821 1.57533L9.67977 1.14971L9.42412 0.886582H9.74014L9.83776 0.460999ZM1.78841 1.53792L1.88603 1.96354H2.20206L1.9464 2.22658L2.04407 2.65225L1.78841 2.38921L1.53276 2.65225L1.6304 2.22662L1.37474 1.96354H1.69077L1.78841 1.53792ZM3.57709 1.53792L3.67476 1.96354H3.99073L3.73507 2.22658L3.83274 2.65225L3.57709 2.38921L3.32143 2.65225L3.4191 2.22662L3.16341 1.96354H3.47944L3.57709 1.53792ZM5.36587 1.53792L5.46352 1.96354H5.77955L5.52386 2.22658L5.62153 2.65225L5.36585 2.38921L5.11022 2.65225L5.20786 2.22662L4.9522 1.96354H5.2682L5.36587 1.53792ZM7.15463 1.53792L7.25231 1.96354H7.56831L7.31265 2.22658L7.41032 2.65225L7.15466 2.38921L6.89898 2.65225L6.99668 2.22662L6.74102 1.96354H7.05705L7.15463 1.53792ZM8.94336 1.53792L9.04098 1.96354H9.35695L9.10132 2.22658L9.19897 2.65225L8.94334 2.38921L8.68768 2.65225L8.78535 2.22662L8.52966 1.96354H8.84569L8.94336 1.53792ZM0.893991 2.61483L0.991665 3.04046H1.30763L1.05198 3.30354L1.14965 3.72921L0.893991 3.46617L0.638332 3.72921L0.736006 3.30358L0.480347 3.0405H0.796316L0.893991 2.61483ZM2.68272 2.61483L2.78039 3.04046H3.09642L2.84074 3.30354L2.93838 3.72921L2.68272 3.46612L2.42709 3.72921L2.52474 3.30358L2.26908 3.0405H2.58508L2.68272 2.61483ZM4.47151 2.61483L4.56918 3.04046H4.88518L4.62952 3.30354L4.7272 3.72917L4.47154 3.46612L4.21588 3.72917L4.31353 3.30354L4.05787 3.04046H4.37389L4.47151 2.61483ZM6.26024 2.61483L6.35786 3.04046H6.67383L6.4182 3.30354L6.51584 3.72921L6.26021 3.46617L6.00455 3.72921L6.10223 3.30358L5.84654 3.0405H6.16257L6.26024 2.61483ZM8.04897 2.61483L8.14664 3.04046H8.46264L8.20698 3.30354L8.30466 3.72917L8.04897 3.46612L7.79334 3.72917L7.89099 3.30354L7.63533 3.04046H7.95133L8.04897 2.61483ZM9.83776 2.61483L9.93543 3.04046H10.2514L9.99577 3.30354L10.0934 3.72917L9.83779 3.46612L9.5821 3.72917L9.67977 3.30354L9.42412 3.04046H9.74014L9.83776 2.61483ZM1.78841 3.69175L1.88603 4.11742H2.20206L1.9464 4.38046L2.04407 4.80612L1.78841 4.54308L1.53276 4.80612L1.6304 4.38046L1.37474 4.11742H1.69077L1.78841 3.69175ZM3.57709 3.69175L3.67476 4.11742H3.99073L3.73507 4.38046L3.83274 4.80612L3.57709 4.54308L3.32143 4.80612L3.4191 4.38046L3.16341 4.11742H3.47944L3.57709 3.69175ZM5.36587 3.69175L5.46352 4.11742H5.77955L5.52386 4.38046L5.62153 4.80612L5.36585 4.54308L5.11022 4.80612L5.20786 4.38046L4.9522 4.11742H5.2682L5.36587 3.69175ZM7.15463 3.69175L7.25231 4.11742H7.56831L7.31265 4.38046L7.41032 4.80612L7.15466 4.54308L6.89898 4.80612L6.99665 4.38046L6.74099 4.11742H7.05702L7.15463 3.69175ZM8.94336 3.69175L9.04098 4.11742H9.35695L9.10132 4.38046L9.19897 4.80612L8.94334 4.54308L8.68768 4.80612L8.78535 4.38046L8.52966 4.11742H8.84566L8.94336 3.69175ZM0.893991 4.76871L0.991665 5.19433H1.30763L1.05198 5.45742L1.14965 5.88304L0.893991 5.62L0.638332 5.88304L0.736006 5.45742L0.480347 5.19433H0.796316L0.893991 4.76871ZM2.68272 4.76871L2.78039 5.19433H3.09642L2.84074 5.45742L2.93841 5.88304L2.68272 5.62L2.42709 5.88304L2.52474 5.45742L2.26908 5.19433H2.58508L2.68272 4.76871ZM4.47151 4.76871L4.56918 5.19433H4.88518L4.62952 5.45742L4.7272 5.88304L4.47154 5.62L4.21588 5.88304L4.31353 5.45742L4.05787 5.19433H4.37389L4.47151 4.76871ZM6.26024 4.76871L6.35786 5.19433H6.67383L6.4182 5.45742L6.51584 5.88304L6.26021 5.62L6.00455 5.88304L6.10223 5.45742L5.84654 5.19433H6.16257L6.26024 4.76871ZM8.04897 4.76871L8.14664 5.19433H8.46264L8.20698 5.45742L8.30466 5.88304L8.04897 5.62L7.79334 5.88304L7.89099 5.45742L7.63533 5.19433H7.95133L8.04897 4.76871ZM9.83776 4.76871L9.93543 5.19433H10.2514L9.99577 5.45742L10.0934 5.88304L9.83779 5.62L9.5821 5.88304L9.67977 5.45742L9.42412 5.19433H9.74014L9.83776 4.76871ZM1.78841 5.84562L1.88603 6.27129H2.20206L1.9464 6.53433L2.04407 6.96L1.78841 6.69696L1.53276 6.96L1.6304 6.53433L1.37474 6.27129H1.69077L1.78841 5.84562ZM3.57709 5.84562L3.67476 6.27129H3.99073L3.73507 6.53433L3.83274 6.96L3.57709 6.69696L3.32143 6.96L3.4191 6.53433L3.16341 6.27129H3.47944L3.57709 5.84562ZM5.36587 5.84562L5.46352 6.27129H5.77955L5.52386 6.53433L5.62153 6.96L5.36585 6.69696L5.11022 6.96L5.20786 6.53433L4.9522 6.27129H5.2682L5.36587 5.84562ZM7.15463 5.84562L7.25231 6.27129H7.56831L7.31265 6.53433L7.41032 6.96L7.15466 6.69696L6.89898 6.96L6.99665 6.53433L6.74099 6.27129H7.05702L7.15463 5.84562ZM8.94336 5.84562L9.04098 6.27129H9.35695L9.10132 6.53433L9.19897 6.96L8.94334 6.69696L8.68768 6.96L8.78535 6.53433L8.52966 6.27129H8.84566L8.94336 5.84562ZM0.893991 6.92258L0.991665 7.34821H1.30763L1.05198 7.61129L1.14965 8.03691L0.893991 7.77387L0.638332 8.03691L0.736006 7.61129L0.480347 7.34821H0.796316L0.893991 6.92258ZM2.68272 6.92258L2.78039 7.34821H3.09642L2.84074 7.61129L2.93841 8.03691L2.68272 7.77387L2.42709 8.03691L2.52474 7.61129L2.26908 7.34821H2.58508L2.68272 6.92258ZM4.47151 6.92258L4.56918 7.34821H4.88518L4.62952 7.61129L4.7272 8.03691L4.47154 7.77387L4.21588 8.03691L4.31353 7.61129L4.05787 7.34821H4.37389L4.47151 6.92258ZM6.26024 6.92258L6.35786 7.34821H6.67383L6.4182 7.61129L6.51584 8.03691L6.26021 7.77387L6.00455 8.03691L6.10223 7.61129L5.84654 7.34821H6.16257L6.26024 6.92258ZM8.04897 6.92258L8.14664 7.34821H8.46264L8.20698 7.61129L8.30466 8.03691L8.04897 7.77387L7.79334 8.03691L7.89099 7.61129L7.63533 7.34821H7.95133L8.04897 6.92258ZM9.83776 6.92258L9.93543 7.34821H10.2514L9.99577 7.61129L10.0934 8.03691L9.83779 7.77387L9.5821 8.03691L9.67977 7.61129L9.42412 7.34821H9.74014L9.83776 6.92258ZM1.78841 7.9995L1.88603 8.42517H2.20206L1.9464 8.68821L2.04407 9.11387L1.78841 8.85083L1.53276 9.11387L1.6304 8.68821L1.37474 8.42517H1.69077L1.78841 7.9995ZM3.57709 7.9995L3.67476 8.42517H3.99073L3.73507 8.68821L3.83274 9.11387L3.57709 8.85083L3.32143 9.11387L3.4191 8.68821L3.16341 8.42517H3.47944L3.57709 7.9995ZM5.36587 7.9995L5.46352 8.42517H5.77955L5.52386 8.68821L5.62153 9.11387L5.36585 8.85083L5.11022 9.11387L5.20786 8.68821L4.9522 8.42517H5.2682L5.36587 7.9995ZM7.15463 7.9995L7.25231 8.42517H7.56831L7.31265 8.68821L7.41032 9.11387L7.15466 8.85083L6.89898 9.11387L6.99665 8.68821L6.74099 8.42517H7.05702L7.15463 7.9995ZM8.94336 7.9995L9.04098 8.42517H9.35695L9.10132 8.68821L9.19897 9.11387L8.94334 8.85083L8.68768 9.11387L8.78535 8.68821L8.52966 8.42517H8.84566L8.94336 7.9995ZM0.893991 9.07646L0.991665 9.50208H1.30763L1.05198 9.76517L1.14965 10.1908L0.893991 9.92775L0.638332 10.1908L0.736006 9.76517L0.480347 9.50208H0.796316L0.893991 9.07646ZM2.68272 9.07646L2.78039 9.50208H3.09642L2.84074 9.76517L2.93841 10.1908L2.68272 9.92775L2.42709 10.1908L2.52474 9.76517L2.26908 9.50208H2.58508L2.68272 9.07646ZM4.47151 9.07646L4.56918 9.50208H4.88518L4.62952 9.76517L4.7272 10.1908L4.47154 9.92775L4.21588 10.1908L4.31353 9.76517L4.05787 9.50208H4.37389L4.47151 9.07646ZM6.26024 9.07646L6.35786 9.50208H6.67383L6.4182 9.76517L6.51584 10.1908L6.26021 9.92775L6.00455 10.1908L6.10223 9.76517L5.84654 9.50208H6.16257L6.26024 9.07646ZM8.04897 9.07646L8.14664 9.50208H8.46264L8.20698 9.76517L8.30466 10.1908L8.04897 9.92775L7.79334 10.1908L7.89099 9.76517L7.63533 9.50208H7.95133L8.04897 9.07646ZM9.83776 9.07646L9.93543 9.50208H10.2514L9.99577 9.76517L10.0934 10.1908L9.83779 9.92775L9.5821 10.1908L9.67977 9.76517L9.42412 9.50208H9.74014L9.83776 9.07646Z" fill="#F5EDE5"/>
</g>
<defs>
<clipPath id="clip0_5_60">
<rect width="27" height="20" rx="2" fill="white"/>
</clipPath>
</defs>
</svg>
