<svg width="40" height="40" viewBox="0 0 40 40" fill="none" xmlns="http://www.w3.org/2000/svg">
<path fill-rule="evenodd" clip-rule="evenodd" d="M35.7894 18.9484C35.7894 28.2505 28.2494 35.7905 18.9473 35.7905C9.64628 35.7905 2.10522 28.2505 2.10522 18.9484C2.10522 9.64738 9.64628 2.10632 18.9473 2.10632C28.2494 2.10632 35.7894 9.64738 35.7894 18.9484Z" fill="#2C3842"/>
<mask id="mask0_191_74" style="mask-type:luminance" maskUnits="userSpaceOnUse" x="2" y="2" width="34" height="34">
<path d="M35.7898 18.9487C35.7898 23.4155 34.0154 27.6994 30.8569 30.8579C27.6984 34.0164 23.4146 35.7908 18.9478 35.7908C14.481 35.7908 10.1971 34.0164 7.03863 30.8579C3.88013 27.6994 2.10571 23.4155 2.10571 18.9487C2.10571 14.482 3.88013 10.1981 7.03863 7.03961C10.1971 3.88111 14.481 2.10669 18.9478 2.10669C23.4146 2.10669 27.6984 3.88111 30.8569 7.03961C34.0154 10.1981 35.7898 14.482 35.7898 18.9487Z" fill="white"/>
</mask>
<g mask="url(#mask0_191_74)">
<path d="M15.3653 25.3831C15.5737 25.3442 11.9884 26.82 6.93371 29.5758C5.95476 30.1105 5.62634 31.1305 5.62634 32.2463V36.0063H32.2684V31.8106C32.2684 30.8106 31.3442 29.8958 30.4706 29.4126C26.6958 27.3242 22.0263 25.2873 22.0948 25.2737L15.3653 25.3831Z" fill="#B5BDC4"/>
</g>
<path d="M22.2021 26.1463C22.2021 27.0707 21.8349 27.9571 21.1813 28.6108C20.5277 29.2644 19.6412 29.6316 18.7168 29.6316C17.7925 29.6316 16.906 29.2644 16.2524 28.6108C15.5988 27.9571 15.2316 27.0707 15.2316 26.1463C15.2316 25.222 15.5988 24.3355 16.2524 23.6819C16.906 23.0282 17.7925 22.661 18.7168 22.661C19.6412 22.661 20.5277 23.0282 21.1813 23.6819C21.8349 24.3355 22.2021 25.222 22.2021 26.1463Z" fill="#FFCCAA"/>
<path d="M18.4748 5.52632C21.4295 5.52632 24.7095 8.23474 24.5379 11.5884L24.1558 19.0053C23.9832 22.359 20.5853 24.9705 18.4748 24.9705C16.3642 24.9705 12.9663 22.359 12.7937 19.0053L12.4127 11.5884C12.24 8.23474 15.5211 5.52527 18.4758 5.52527L18.4748 5.52632Z" fill="#FFCCAA"/>
<path d="M25.7411 17.7126C25.7569 19.1074 25.0705 20.2453 24.2084 20.2547C23.3474 20.2653 22.6358 19.1421 22.62 17.7474C22.6042 16.3537 23.2905 15.2147 24.1526 15.2053C25.0148 15.1958 25.7253 16.3189 25.7411 17.7126ZM14.4505 17.7126C14.4663 19.1074 13.78 20.2453 12.9179 20.2547C12.0569 20.2653 11.3453 19.1421 11.3295 17.7474C11.3137 16.3537 12 15.2147 12.8621 15.2053C13.7242 15.1958 14.4348 16.3189 14.4505 17.7126Z" fill="#FFCCAA"/>
<path d="M24.1863 18.3389C26.9389 15.021 27.081 10.0989 23.7631 7.34631C21.1442 5.17368 17.0221 4.32105 14.9284 6.66842C14.2789 7.39789 13.3642 7.77789 12.7705 8.36842C10.3473 10.7768 10.861 14.74 12.721 17.6053V14.1842C12.721 12.7768 14.5905 12.1684 16.4547 12.1684H19.9421C22.1042 12.1684 24.3147 13.5947 24.2473 16.0916L24.1863 18.3389Z" fill="black"/>
</svg>
