<svg width="22" height="22" viewBox="0 0 22 22" fill="none" xmlns="http://www.w3.org/2000/svg">
<path fill-rule="evenodd" clip-rule="evenodd" d="M7.52062 18.75C7.70737 20.4364 9.13912 21.75 10.875 21.75C12.6109 21.75 14.0426 20.4364 14.2294 18.75H19.875C20.9104 18.75 21.75 17.9104 21.75 16.875C21.75 15.8396 20.9104 15 19.875 15H19.125C18.918 15 18.75 14.832 18.75 14.625V10.125C18.75 6.42188 16.1936 3.31575 12.75 2.47462V1.875C12.75 0.839625 11.9104 0 10.875 0C9.83963 0 9 0.839625 9 1.875V2.47462C5.55638 3.31575 3 6.42188 3 10.125V14.625C3 14.832 2.832 15 2.625 15C2.25 15 1.875 15 1.875 15C0.839625 15 0 15.8396 0 16.875C0 17.9104 0.839625 18.75 1.875 18.75H4.875C5.082 18.75 5.25 18.582 5.25 18.375C5.25 18.168 5.082 18 4.875 18H1.875C1.25363 18 0.75 17.4964 0.75 16.875C0.75 16.2536 1.25363 15.75 1.875 15.75C1.875 15.75 2.25 15.75 2.625 15.75C3.24638 15.75 3.75 15.2464 3.75 14.625V10.125C3.75 6.678 6.19763 3.8025 9.44963 3.1425C9.62438 3.10725 9.75 2.95351 9.75 2.77501V1.875C9.75 1.25363 10.2536 0.75 10.875 0.75C11.4964 0.75 12 1.25363 12 1.875V2.77501C12 2.95351 12.1256 3.10725 12.3004 3.1425C15.5524 3.8025 18 6.678 18 10.125C18 10.125 18 13.0155 18 14.625C18 15.2464 18.5036 15.75 19.125 15.75H19.875C20.4964 15.75 21 16.2536 21 16.875C21 17.4964 20.4964 18 19.875 18H6.375C6.168 18 6 18.168 6 18.375C6 18.582 6.168 18.75 6.375 18.75H7.52062ZM13.4734 18.75H8.27662C8.45887 20.0216 9.5535 21 10.875 21C12.1965 21 13.2911 20.0212 13.4734 18.75Z" fill="black"/>
<path d="M13.4734 18.75H8.27662C8.45887 20.0216 9.5535 21 10.875 21C12.1965 21 13.2911 20.0212 13.4734 18.75Z" fill="#006D77"/>
</svg>
