<svg width="21" height="19" viewBox="0 0 21 19" fill="none" xmlns="http://www.w3.org/2000/svg">
<path d="M21 10.875V1.875C21 1.37772 20.8025 0.900805 20.4508 0.549175C20.0992 0.197544 19.6223 0 19.125 0H4.125C3.62772 0 3.15081 0.197544 2.79917 0.549175C2.44754 0.900805 2.25 1.37772 2.25 1.875H3C3 1.57663 3.11853 1.29048 3.3295 1.0795C3.54048 0.868526 3.82663 0.75 4.125 0.75H19.125C19.4234 0.75 19.7095 0.868526 19.9205 1.0795C20.1315 1.29048 20.25 1.57663 20.25 1.875V10.875C20.25 11.1734 20.1315 11.4595 19.9205 11.6705C19.7095 11.8815 19.4234 12 19.125 12V12.75C19.3712 12.75 19.615 12.7015 19.8425 12.6073C20.07 12.513 20.2767 12.3749 20.4508 12.2008C20.6249 12.0267 20.763 11.82 20.8573 11.5925C20.9515 11.365 21 11.1212 21 10.875Z" fill="#FE9C2D"/>
<path fill-rule="evenodd" clip-rule="evenodd" d="M3.75 18.75C3.69973 18.7499 3.65 18.7397 3.60375 18.72C3.53597 18.6913 3.47814 18.6433 3.43746 18.5819C3.39678 18.5206 3.37506 18.4486 3.375 18.375V15H1.875C1.37772 15 0.900805 14.8025 0.549175 14.4508C0.197544 14.0992 0 13.6223 0 13.125V4.125C0 3.62772 0.197544 3.15081 0.549175 2.79917C0.900805 2.44754 1.37772 2.25 1.875 2.25H16.875C17.3723 2.25 17.8492 2.44754 18.2008 2.79917C18.5525 3.15081 18.75 3.62772 18.75 4.125V13.125C18.75 13.6223 18.5525 14.0992 18.2008 14.4508C17.8492 14.8025 17.3723 15 16.875 15H7.815L4.00875 18.645C3.93923 18.712 3.84655 18.7496 3.75 18.75ZM1.875 3C1.57663 3 1.29048 3.11853 1.0795 3.3295C0.868527 3.54048 0.75 3.82663 0.75 4.125V13.125C0.75 13.4234 0.868527 13.7095 1.0795 13.9205C1.29048 14.1315 1.57663 14.25 1.875 14.25H3.75C3.84946 14.25 3.94484 14.2895 4.01516 14.3598C4.08549 14.4302 4.125 14.5255 4.125 14.625V17.4975L7.40625 14.355C7.47577 14.288 7.56845 14.2504 7.665 14.25H16.875C17.1734 14.25 17.4595 14.1315 17.6705 13.9205C17.8815 13.7095 18 13.4234 18 13.125V4.125C18 3.82663 17.8815 3.54048 17.6705 3.3295C17.4595 3.11853 17.1734 3 16.875 3H1.875ZM9 11.625V12.375H9.75V11.625H9Z" fill="#040405"/>
<path d="M9.75 9.345C10.1729 9.27351 10.5666 9.08264 10.8846 8.79486C11.2027 8.50708 11.4318 8.13439 11.5451 7.72071C11.6584 7.30702 11.6511 6.86958 11.524 6.45992C11.3969 6.05026 11.1554 5.68545 10.8279 5.40848C10.5004 5.13151 10.1006 4.95392 9.67552 4.89663C9.25045 4.83934 8.81786 4.90475 8.42872 5.08513C8.03958 5.26552 7.71011 5.55338 7.47913 5.91478C7.24815 6.27619 7.12528 6.69609 7.125 7.125H7.875C7.875 6.82833 7.96297 6.53832 8.1278 6.29165C8.29262 6.04497 8.52689 5.85271 8.80097 5.73918C9.07506 5.62565 9.37666 5.59594 9.66763 5.65382C9.95861 5.7117 10.2259 5.85456 10.4357 6.06434C10.6454 6.27412 10.7883 6.54139 10.8462 6.83236C10.9041 7.12334 10.8744 7.42494 10.7608 7.69903C10.6473 7.97311 10.455 8.20738 10.2084 8.3722C9.96168 8.53703 9.67167 8.625 9.375 8.625C9.27554 8.625 9.18016 8.66451 9.10983 8.73483C9.03951 8.80516 9 8.90054 9 9V10.875H9.75V9.345Z" fill="#FE9C2D"/>
</svg>
