<svg width="15" height="19" viewBox="0 0 15 19" fill="none" xmlns="http://www.w3.org/2000/svg">
<path d="M13.2915 6.65326L12.9915 15.7335C12.9659 16.5112 12.6383 17.2483 12.0782 17.7884C11.5181 18.3285 10.7696 18.629 9.9915 18.6263H4.2915C3.51392 18.629 2.76582 18.3289 2.20578 17.7894C1.64575 17.25 1.31782 16.5137 1.2915 15.7365L0.9915 6.65326C0.984936 6.45435 1.05766 6.26097 1.19367 6.11568C1.32968 5.97038 1.51784 5.88507 1.71675 5.87851C1.91566 5.87194 2.10904 5.94467 2.25433 6.08068C2.39962 6.21669 2.48494 6.40485 2.4915 6.60376L2.7915 15.6863C2.80644 16.074 2.97104 16.4408 3.25075 16.7098C3.53045 16.9787 3.90348 17.1288 4.2915 17.1285H9.9915C10.38 17.1288 10.7535 16.9783 11.0333 16.7087C11.313 16.4391 11.4773 16.0715 11.4915 15.6833L11.7915 6.60376C11.7981 6.40485 11.8834 6.21669 12.0287 6.08068C12.174 5.94467 12.3673 5.87194 12.5662 5.87851C12.7652 5.88507 12.9533 5.97038 13.0893 6.11568C13.2253 6.26097 13.2981 6.45435 13.2915 6.65326ZM14.2838 3.63151C14.2838 3.83042 14.2047 4.02119 14.0641 4.16184C13.9234 4.30249 13.7327 4.38151 13.5338 4.38151H0.75C0.551088 4.38151 0.360322 4.30249 0.21967 4.16184C0.0790174 4.02119 0 3.83042 0 3.63151C0 3.43259 0.0790174 3.24183 0.21967 3.10118C0.360322 2.96053 0.551088 2.88151 0.75 2.88151H3.075C3.31264 2.88215 3.54201 2.79435 3.71848 2.6352C3.89496 2.47606 4.00591 2.25695 4.02975 2.02051C4.0851 1.46587 4.34495 0.951706 4.75867 0.578188C5.1724 0.204671 5.71036 -0.00144248 6.26775 7.59966e-06H8.01525C8.57264 -0.00144248 9.1106 0.204671 9.52433 0.578188C9.93805 0.951706 10.1979 1.46587 10.2533 2.02051C10.2771 2.25695 10.388 2.47606 10.5645 2.6352C10.741 2.79435 10.9704 2.88215 11.208 2.88151H13.533C13.7319 2.88151 13.9227 2.96053 14.0633 3.10118C14.204 3.24183 14.283 3.43259 14.283 3.63151H14.2838ZM5.33175 2.88151H8.95275C8.85419 2.65631 8.78974 2.4177 8.7615 2.17351C8.74292 1.98864 8.65638 1.81725 8.51865 1.69254C8.38092 1.56783 8.2018 1.49869 8.016 1.49851H6.2685C6.0827 1.49869 5.90358 1.56783 5.76585 1.69254C5.62812 1.81725 5.54158 1.98864 5.523 2.17351C5.49452 2.41773 5.43056 2.65636 5.33175 2.88151ZM6.087 14.2448V7.85851C6.087 7.6596 6.00798 7.46883 5.86733 7.32818C5.72668 7.18753 5.53591 7.10851 5.337 7.10851C5.13809 7.10851 4.94732 7.18753 4.80667 7.32818C4.66602 7.46883 4.587 7.6596 4.587 7.85851V14.2478C4.587 14.4467 4.66602 14.6374 4.80667 14.7781C4.94732 14.9187 5.13809 14.9978 5.337 14.9978C5.53591 14.9978 5.72668 14.9187 5.86733 14.7781C6.00798 14.6374 6.087 14.4467 6.087 14.2478V14.2448ZM9.6975 14.2448V7.85851C9.6975 7.6596 9.61848 7.46883 9.47783 7.32818C9.33718 7.18753 9.14641 7.10851 8.9475 7.10851C8.74859 7.10851 8.55782 7.18753 8.41717 7.32818C8.27652 7.46883 8.1975 7.6596 8.1975 7.85851V14.2478C8.1975 14.4467 8.27652 14.6374 8.41717 14.7781C8.55782 14.9187 8.74859 14.9978 8.9475 14.9978C9.14641 14.9978 9.33718 14.9187 9.47783 14.7781C9.61848 14.6374 9.6975 14.4467 9.6975 14.2478V14.2448Z" fill="#DB2524"/>
</svg>
