<svg width="14" height="14" viewBox="0 0 14 14" fill="none" xmlns="http://www.w3.org/2000/svg">
<path d="M6.53491 1.0799C6.74869 0.734354 7.25129 0.734354 7.46506 1.0799L8.302 2.43273C8.43505 2.6478 8.69822 2.74359 8.93839 2.66436L10.4491 2.166C10.835 2.03871 11.22 2.36177 11.1616 2.76389L10.9332 4.33819C10.8969 4.58847 11.0369 4.83101 11.2718 4.92469L12.7494 5.514C13.1268 5.66453 13.2141 6.15948 12.9109 6.43001L11.724 7.48915C11.5353 7.65753 11.4867 7.93333 11.6064 8.1561L12.3595 9.55732C12.5519 9.91523 12.3005 10.3505 11.8944 10.3629L10.3044 10.4112C10.0516 10.4189 9.83706 10.599 9.78558 10.8466L9.46181 12.404C9.37911 12.8019 8.90683 12.9738 8.58777 12.7222L7.3386 11.7372C7.14002 11.5807 6.85995 11.5807 6.66137 11.7372L5.41221 12.7222C5.09314 12.9738 4.62086 12.8019 4.53816 12.404L4.21439 10.8466C4.16292 10.599 3.94838 10.4189 3.69561 10.4112L2.10554 10.3629C1.6994 10.3505 1.4481 9.91523 1.64047 9.55733L2.39359 8.1561C2.51332 7.93333 2.46469 7.65753 2.27599 7.48915L1.08904 6.43001C0.785869 6.15949 0.873143 5.66453 1.25056 5.514L2.72817 4.92469C2.96308 4.83101 3.10311 4.58847 3.06679 4.33819L2.83834 2.76389C2.77998 2.36177 3.16499 2.03871 3.55087 2.166L5.06159 2.66436C5.30175 2.74359 5.56492 2.6478 5.69798 2.43273L6.53491 1.0799Z" fill="#272EFF" stroke="#272EFF" stroke-width="0.4375"/>
<path d="M4.8125 7.19911L6.15603 8.54812C6.32703 8.71981 6.60501 8.71981 6.77601 8.54812L9.625 5.6875" stroke="white" stroke-width="0.4375" stroke-linecap="round" stroke-linejoin="round"/>
</svg>
