<svg width="28" height="28" viewBox="0 0 28 28" fill="none" xmlns="http://www.w3.org/2000/svg">
<path d="M25.8125 14.875H25.375V10.5C25.375 10.1519 25.2367 9.81806 24.9906 9.57192C24.7444 9.32578 24.4106 9.1875 24.0625 9.1875H23.625V5.25C23.625 4.9019 23.4867 4.56806 23.2406 4.32192C22.9944 4.07578 22.6606 3.9375 22.3125 3.9375H3.9375C3.12559 3.93854 2.34724 4.26153 1.77314 4.83564C1.19903 5.40974 0.876042 6.18809 0.875 7V23.625C0.875695 24.2049 1.10639 24.7609 1.51647 25.171C1.92656 25.5811 2.48255 25.8118 3.0625 25.8125H24.0625C24.4106 25.8125 24.7444 25.6742 24.9906 25.4281C25.2367 25.1819 25.375 24.8481 25.375 24.5V21H25.8125C26.1606 21 26.4944 20.8617 26.7406 20.6156C26.9867 20.3694 27.125 20.0356 27.125 19.6875V16.1875C27.125 15.8394 26.9867 15.5056 26.7406 15.2594C26.4944 15.0133 26.1606 14.875 25.8125 14.875ZM2.39312 5.453C2.59496 5.24883 2.83553 5.08701 3.10073 4.97702C3.36592 4.86704 3.65041 4.8111 3.9375 4.8125H22.3125C22.4285 4.8125 22.5398 4.85859 22.6219 4.94064C22.7039 5.02269 22.75 5.13397 22.75 5.25V6.5625H3.9375C3.82147 6.5625 3.71019 6.60859 3.62814 6.69064C3.54609 6.77269 3.5 6.88397 3.5 7C3.5 7.11603 3.54609 7.22731 3.62814 7.30936C3.71019 7.39141 3.82147 7.4375 3.9375 7.4375H22.75V9.1875H3.9375C3.35755 9.18681 2.80156 8.95611 2.39147 8.54603C1.98139 8.13594 1.75069 7.57995 1.75 7C1.74872 6.7123 1.80495 6.42724 1.91539 6.16158C2.02584 5.89591 2.18826 5.655 2.39312 5.453ZM24.5 24.5C24.5 24.616 24.4539 24.7273 24.3719 24.8094C24.2898 24.8914 24.1785 24.9375 24.0625 24.9375H3.0625C2.7144 24.9375 2.38056 24.7992 2.13442 24.5531C1.88828 24.3069 1.75 23.9731 1.75 23.625V9.14375L1.76356 9.156C1.7955 9.18837 1.8305 9.21856 1.86419 9.24963C1.89788 9.28069 1.94075 9.32225 1.98144 9.35637C2.02212 9.3905 2.05319 9.41062 2.08906 9.43819C2.13281 9.47056 2.17394 9.50425 2.21813 9.53488C2.25531 9.55981 2.29469 9.58169 2.33275 9.60531C2.37869 9.63419 2.42419 9.66394 2.47188 9.69019C2.51169 9.71206 2.55413 9.73044 2.59525 9.75056C2.64338 9.77419 2.69062 9.79956 2.7405 9.82056C2.79037 9.84156 2.83106 9.85425 2.87656 9.87131C2.92206 9.88837 2.97281 9.90937 3.02269 9.92469C3.07256 9.94 3.12637 9.95225 3.17844 9.96537C3.2305 9.9785 3.27031 9.99163 3.31756 10.0013C3.37881 10.0139 3.44181 10.0214 3.50437 10.0306C3.54375 10.0363 3.58269 10.0446 3.62294 10.0485C3.72749 10.0585 3.83248 10.0631 3.9375 10.0625H24.0625C24.1785 10.0625 24.2898 10.1086 24.3719 10.1906C24.4539 10.2727 24.5 10.384 24.5 10.5V14.875H19.6875C19.3394 14.875 19.0056 15.0133 18.7594 15.2594C18.5133 15.5056 18.375 15.8394 18.375 16.1875V19.6875C18.375 20.0356 18.5133 20.3694 18.7594 20.6156C19.0056 20.8617 19.3394 21 19.6875 21H24.5V24.5ZM26.25 19.6875C26.25 19.8035 26.2039 19.9148 26.1219 19.9969C26.0398 20.0789 25.9285 20.125 25.8125 20.125H19.6875C19.5715 20.125 19.4602 20.0789 19.3781 19.9969C19.2961 19.9148 19.25 19.8035 19.25 19.6875V16.1875C19.25 16.0715 19.2961 15.9602 19.3781 15.8781C19.4602 15.7961 19.5715 15.75 19.6875 15.75H25.8125C25.9285 15.75 26.0398 15.7961 26.1219 15.8781C26.2039 15.9602 26.25 16.0715 26.25 16.1875V19.6875Z" fill="#797979"/>
<path d="M21.4375 16.625C21.1779 16.625 20.9242 16.702 20.7083 16.8462C20.4925 16.9904 20.3242 17.1954 20.2249 17.4352C20.1256 17.6751 20.0996 17.939 20.1502 18.1936C20.2009 18.4482 20.3259 18.682 20.5094 18.8656C20.693 19.0491 20.9268 19.1741 21.1814 19.2248C21.436 19.2754 21.6999 19.2494 21.9398 19.1501C22.1796 19.0508 22.3846 18.8825 22.5288 18.6667C22.673 18.4508 22.75 18.1971 22.75 17.9375C22.75 17.5894 22.6117 17.2556 22.3656 17.0094C22.1194 16.7633 21.7856 16.625 21.4375 16.625ZM21.4375 18.375C21.351 18.375 21.2664 18.3493 21.1944 18.3013C21.1225 18.2532 21.0664 18.1849 21.0333 18.1049C21.0002 18.025 20.9915 17.937 21.0084 17.8521C21.0253 17.7673 21.067 17.6893 21.1281 17.6281C21.1893 17.567 21.2673 17.5253 21.3521 17.5084C21.437 17.4915 21.525 17.5002 21.6049 17.5333C21.6849 17.5664 21.7532 17.6225 21.8013 17.6944C21.8493 17.7664 21.875 17.851 21.875 17.9375C21.875 18.0535 21.8289 18.1648 21.7469 18.2469C21.6648 18.3289 21.5535 18.375 21.4375 18.375Z" fill="#797979"/>
</svg>
